<?xml version="1.0" encoding="utf-8"?>
<!-- Generator: Adobe Illustrator 28.1.0, SVG Export Plug-In . SVG Version: 6.00 Build 0)  -->
<svg version="1.1" xmlns="http://www.w3.org/2000/svg" xmlns:xlink="http://www.w3.org/1999/xlink" x="0px" y="0px"
	 viewBox="0 0 100 100" style="enable-background:new 0 0 100 100;" xml:space="preserve">
<style type="text/css">
	.st0{display:none;}
	.st1{display:inline;}
	.st2{fill:#233D71;}
</style>
<g id="Layer_1" class="st0">
	<g class="st1">
		<path class="st2" d="M42.9,10.2c0,0.9,0,1.8,0,2.6c-0.1,1-0.6,1.6-1.5,1.6c-0.9,0-1.5-0.6-1.6-1.6c-0.1-1.8-0.1-3.5,0-5.3
			c0.1-1,0.6-1.6,1.6-1.5c0.9,0.1,1.4,0.7,1.4,1.6C43,8.5,42.9,9.4,42.9,10.2z"/>
		<path class="st2" d="M49.3,12.7c-0.1,1.1-0.8,1.9-1.6,1.8c-0.9-0.1-1.5-0.7-1.5-1.7c-0.1-1.7-0.1-3.4,0-5.1c0-1,0.5-1.7,1.5-1.7
			c0.9,0,1.5,0.6,1.6,1.7c0,0.1,0,0.2,0,0.2v2.3c0,0,0,0,0,0C49.3,11.1,49.3,11.9,49.3,12.7z"/>
		<path class="st2" d="M55.6,13c0,0.9-0.7,1.5-1.5,1.5c-0.9,0-1.5-0.6-1.5-1.7c0-0.8,0-1.7,0-2.5s0-1.7,0-2.5c0-1,0.5-1.6,1.4-1.7
			c1-0.1,1.6,0.5,1.6,1.5C55.7,9.4,55.7,11.2,55.6,13z"/>
		<path class="st2" d="M61.9,10.2c0,0.8,0,1.7,0,2.5c0,1-0.7,1.9-1.5,1.8c-0.9-0.1-1.5-0.6-1.5-1.7c0-1.7,0-3.4,0-5.1
			c0-1,0.5-1.6,1.5-1.7c0.9,0,1.5,0.6,1.5,1.6C62,8.5,61.9,9.4,61.9,10.2z"/>
		<path class="st2" d="M68.3,10.3c0,0.9,0,1.8,0,2.6c0,1-0.6,1.6-1.5,1.6c-0.8,0-1.5-0.6-1.5-1.5c-0.1-1.8-0.1-3.6,0-5.4
			c0-0.9,0.6-1.5,1.5-1.5c0.9,0,1.4,0.5,1.5,1.5C68.3,8.5,68.3,9.4,68.3,10.3z"/>
		<path class="st2" d="M74.6,12.8c-0.1,1-0.6,1.6-1.5,1.7c-0.8,0.1-1.6-0.7-1.6-1.7c-0.1-1.7-0.1-3.4,0-5.1c0-1,0.6-1.6,1.5-1.6
			c1,0,1.5,0.6,1.5,1.6c0.1,0.8,0,1.7,0,2.5h0C74.7,11.1,74.7,11.9,74.6,12.8z"/>
		<path class="st2" d="M81,10.4c0,0.7,0,1.4,0,2.2c0,1.2-0.6,1.9-1.5,2c-0.9,0-1.6-0.7-1.6-1.9c0-1.6,0-3.2,0-4.8
			c0-1.1,0.6-1.8,1.5-1.8c0.9,0,1.5,0.7,1.5,1.8C81,8.7,81,9.5,81,10.4z"/>
		<path class="st2" d="M87.3,12.8c0,1-0.8,1.8-1.6,1.7c-0.9-0.1-1.4-0.7-1.5-1.7c0-0.9,0-1.8,0-2.7c0-0.8,0-1.6,0-2.4
			c0-1.1,0.6-1.6,1.5-1.6c1,0,1.5,0.6,1.5,1.6C87.4,9.4,87.4,11.1,87.3,12.8z"/>
		<path class="st2" d="M37.5,53.4c0-3.4-0.9-6.4-2.9-9c-1.2-1.6-2.7-2.8-4.3-3.8c3.8-4.1,3.2-9.8,0.2-13c-3.1-3.3-8-3.3-11,0.1
			c-3.2,3.6-3.1,8.8,0.3,12.8c-0.2,0.1-0.3,0.2-0.4,0.3c-3.7,2.3-6,5.7-6.6,10.4c-0.4,2.9-0.1,5.8-0.1,8.7c0,2.6,1.2,4,3.5,4
			c5.9,0,11.8,0,17.7,0c2.3,0,3.6-1.3,3.6-3.9C37.5,57.8,37.5,55.6,37.5,53.4z M25,28.6c2.6,0,4.8,2.4,4.8,5.3c0,3-2.1,5.4-4.7,5.4
			c-2.7,0-4.8-2.3-4.9-5.3C20.2,31.2,22.4,28.7,25,28.6z M33.5,60.6c-2.8-0.1-5.6,0-8.5,0c-2.8,0-5.6,0-8.4,0c-0.8,0-1-0.2-0.9-1.1
			c0.2-3-0.3-6.1,0.4-9c1.2-5,5.5-8.2,10.2-7.6c4.5,0.6,8,5,8,10.1c0,2.2,0,4.4,0,6.5C34.4,60.3,34.3,60.6,33.5,60.6z M37.5,53.4
			c0-3.4-0.9-6.4-2.9-9c-1.2-1.6-2.7-2.8-4.3-3.8c3.8-4.1,3.2-9.8,0.2-13c-3.1-3.3-8-3.3-11,0.1c-3.2,3.6-3.1,8.8,0.3,12.8
			c-0.2,0.1-0.3,0.2-0.4,0.3c-3.7,2.3-6,5.7-6.6,10.4c-0.4,2.9-0.1,5.8-0.1,8.7c0,2.6,1.2,4,3.5,4c5.9,0,11.8,0,17.7,0
			c2.3,0,3.6-1.3,3.6-3.9C37.5,57.8,37.5,55.6,37.5,53.4z M25,28.6c2.6,0,4.8,2.4,4.8,5.3c0,3-2.1,5.4-4.7,5.4
			c-2.7,0-4.8-2.3-4.9-5.3C20.2,31.2,22.4,28.7,25,28.6z M33.5,60.6c-2.8-0.1-5.6,0-8.5,0c-2.8,0-5.6,0-8.4,0c-0.8,0-1-0.2-0.9-1.1
			c0.2-3-0.3-6.1,0.4-9c1.2-5,5.5-8.2,10.2-7.6c4.5,0.6,8,5,8,10.1c0,2.2,0,4.4,0,6.5C34.4,60.3,34.3,60.6,33.5,60.6z M37.5,53.4
			c0-3.4-0.9-6.4-2.9-9c-1.2-1.6-2.7-2.8-4.3-3.8c3.8-4.1,3.2-9.8,0.2-13c-3.1-3.3-8-3.3-11,0.1c-3.2,3.6-3.1,8.8,0.3,12.8
			c-0.2,0.1-0.3,0.2-0.4,0.3c-3.7,2.3-6,5.7-6.6,10.4c-0.4,2.9-0.1,5.8-0.1,8.7c0,2.6,1.2,4,3.5,4c5.9,0,11.8,0,17.7,0
			c2.3,0,3.6-1.3,3.6-3.9C37.5,57.8,37.5,55.6,37.5,53.4z M25,28.6c2.6,0,4.8,2.4,4.8,5.3c0,3-2.1,5.4-4.7,5.4
			c-2.7,0-4.8-2.3-4.9-5.3C20.2,31.2,22.4,28.7,25,28.6z M33.5,60.6c-2.8-0.1-5.6,0-8.5,0c-2.8,0-5.6,0-8.4,0c-0.8,0-1-0.2-0.9-1.1
			c0.2-3-0.3-6.1,0.4-9c1.2-5,5.5-8.2,10.2-7.6c4.5,0.6,8,5,8,10.1c0,2.2,0,4.4,0,6.5C34.4,60.3,34.3,60.6,33.5,60.6z M78.9,66.3
			c0-0.7-0.4-1.3-0.9-1.3c-1,0-0.9-0.7-0.9-1.5c-0.2-6.4-5.6-10.9-11.2-9.6c-3.5,0.8-7.3,4.3-7.3,9.9c0,0.4,0.2,1-0.5,1.1
			c-1,0.1-1.4,0.9-1.4,1.9c0,1.8,0,3.6,0,5.4h0.1c0,2-0.2,4.1,0,6c0.6,5.4,5.1,9.8,9.9,10.1c6.6,0.5,11-4.3,11.9-9.1
			C79.4,75,78.9,70.6,78.9,66.3z M67.8,57.1c3.6,0,6.2,2.9,6.2,6.8c0,0.8-0.2,0.9-0.9,0.9c-1.8,0-3.5,0-5.3,0c-1.8,0-3.5,0-5.3,0
			c-0.6,0-0.8-0.1-0.8-0.9C61.6,60.1,64.2,57.2,67.8,57.1z M75.9,76.4c0.1,5.1-4.3,9.2-9.2,8.5c-4.3-0.7-7.2-4.5-7-9.2
			c0.1-2.2,0-4.4,0-6.6c0-0.7,0.2-0.9,0.8-0.9c2.5,0,4.9,0,7.4,0c2.4,0,4.8,0,7.2,0c0.7,0,0.8,0.2,0.8,0.9
			C75.9,71.6,75.8,74,75.9,76.4z M37.5,53.4c0-3.4-0.9-6.4-2.9-9c-1.2-1.6-2.7-2.8-4.3-3.8c3.8-4.1,3.2-9.8,0.2-13
			c-3.1-3.3-8-3.3-11,0.1c-3.2,3.6-3.1,8.8,0.3,12.8c-0.2,0.1-0.3,0.2-0.4,0.3c-3.7,2.3-6,5.7-6.6,10.4c-0.4,2.9-0.1,5.8-0.1,8.7
			c0,2.6,1.2,4,3.5,4c5.9,0,11.8,0,17.7,0c2.3,0,3.6-1.3,3.6-3.9C37.5,57.8,37.5,55.6,37.5,53.4z M25,28.6c2.6,0,4.8,2.4,4.8,5.3
			c0,3-2.1,5.4-4.7,5.4c-2.7,0-4.8-2.3-4.9-5.3C20.2,31.2,22.4,28.7,25,28.6z M33.5,60.6c-2.8-0.1-5.6,0-8.5,0c-2.8,0-5.6,0-8.4,0
			c-0.8,0-1-0.2-0.9-1.1c0.2-3-0.3-6.1,0.4-9c1.2-5,5.5-8.2,10.2-7.6c4.5,0.6,8,5,8,10.1c0,2.2,0,4.4,0,6.5
			C34.4,60.3,34.3,60.6,33.5,60.6z M78.9,66.3c0-0.7-0.4-1.3-0.9-1.3c-1,0-0.9-0.7-0.9-1.5c-0.2-6.4-5.6-10.9-11.2-9.6
			c-3.5,0.8-7.3,4.3-7.3,9.9c0,0.4,0.2,1-0.5,1.1c-1,0.1-1.4,0.9-1.4,1.9c0,1.8,0,3.6,0,5.4h0.1c0,2-0.2,4.1,0,6
			c0.6,5.4,5.1,9.8,9.9,10.1c6.6,0.5,11-4.3,11.9-9.1C79.4,75,78.9,70.6,78.9,66.3z M67.8,57.1c3.6,0,6.2,2.9,6.2,6.8
			c0,0.8-0.2,0.9-0.9,0.9c-1.8,0-3.5,0-5.3,0c-1.8,0-3.5,0-5.3,0c-0.6,0-0.8-0.1-0.8-0.9C61.6,60.1,64.2,57.2,67.8,57.1z M75.9,76.4
			c0.1,5.1-4.3,9.2-9.2,8.5c-4.3-0.7-7.2-4.5-7-9.2c0.1-2.2,0-4.4,0-6.6c0-0.7,0.2-0.9,0.8-0.9c2.5,0,4.9,0,7.4,0c2.4,0,4.8,0,7.2,0
			c0.7,0,0.8,0.2,0.8,0.9C75.9,71.6,75.8,74,75.9,76.4z M37.5,53.4c0-3.4-0.9-6.4-2.9-9c-1.2-1.6-2.7-2.8-4.3-3.8
			c3.8-4.1,3.2-9.8,0.2-13c-3.1-3.3-8-3.3-11,0.1c-3.2,3.6-3.1,8.8,0.3,12.8c-0.2,0.1-0.3,0.2-0.4,0.3c-3.7,2.3-6,5.7-6.6,10.4
			c-0.4,2.9-0.1,5.8-0.1,8.7c0,2.6,1.2,4,3.5,4c5.9,0,11.8,0,17.7,0c2.3,0,3.6-1.3,3.6-3.9C37.5,57.8,37.5,55.6,37.5,53.4z M25,28.6
			c2.6,0,4.8,2.4,4.8,5.3c0,3-2.1,5.4-4.7,5.4c-2.7,0-4.8-2.3-4.9-5.3C20.2,31.2,22.4,28.7,25,28.6z M33.5,60.6
			c-2.8-0.1-5.6,0-8.5,0c-2.8,0-5.6,0-8.4,0c-0.8,0-1-0.2-0.9-1.1c0.2-3-0.3-6.1,0.4-9c1.2-5,5.5-8.2,10.2-7.6c4.5,0.6,8,5,8,10.1
			c0,2.2,0,4.4,0,6.5C34.4,60.3,34.3,60.6,33.5,60.6z M78.9,66.3c0-0.7-0.4-1.3-0.9-1.3c-1,0-0.9-0.7-0.9-1.5
			c-0.2-6.4-5.6-10.9-11.2-9.6c-3.5,0.8-7.3,4.3-7.3,9.9c0,0.4,0.2,1-0.5,1.1c-1,0.1-1.4,0.9-1.4,1.9c0,1.8,0,3.6,0,5.4h0.1
			c0,2-0.2,4.1,0,6c0.6,5.4,5.1,9.8,9.9,10.1c6.6,0.5,11-4.3,11.9-9.1C79.4,75,78.9,70.6,78.9,66.3z M67.8,57.1
			c3.6,0,6.2,2.9,6.2,6.8c0,0.8-0.2,0.9-0.9,0.9c-1.8,0-3.5,0-5.3,0c-1.8,0-3.5,0-5.3,0c-0.6,0-0.8-0.1-0.8-0.9
			C61.6,60.1,64.2,57.2,67.8,57.1z M75.9,76.4c0.1,5.1-4.3,9.2-9.2,8.5c-4.3-0.7-7.2-4.5-7-9.2c0.1-2.2,0-4.4,0-6.6
			c0-0.7,0.2-0.9,0.8-0.9c2.5,0,4.9,0,7.4,0c2.4,0,4.8,0,7.2,0c0.7,0,0.8,0.2,0.8,0.9C75.9,71.6,75.8,74,75.9,76.4z M37.5,53.4
			c0-3.4-0.9-6.4-2.9-9c-1.2-1.6-2.7-2.8-4.3-3.8c3.8-4.1,3.2-9.8,0.2-13c-3.1-3.3-8-3.3-11,0.1c-3.2,3.6-3.1,8.8,0.3,12.8
			c-0.2,0.1-0.3,0.2-0.4,0.3c-3.7,2.3-6,5.7-6.6,10.4c-0.4,2.9-0.1,5.8-0.1,8.7c0,2.6,1.2,4,3.5,4c5.9,0,11.8,0,17.7,0
			c2.3,0,3.6-1.3,3.6-3.9C37.5,57.8,37.5,55.6,37.5,53.4z M25,28.6c2.6,0,4.8,2.4,4.8,5.3c0,3-2.1,5.4-4.7,5.4
			c-2.7,0-4.8-2.3-4.9-5.3C20.2,31.2,22.4,28.7,25,28.6z M33.5,60.6c-2.8-0.1-5.6,0-8.5,0c-2.8,0-5.6,0-8.4,0c-0.8,0-1-0.2-0.9-1.1
			c0.2-3-0.3-6.1,0.4-9c1.2-5,5.5-8.2,10.2-7.6c4.5,0.6,8,5,8,10.1c0,2.2,0,4.4,0,6.5C34.4,60.3,34.3,60.6,33.5,60.6z M78.9,66.3
			c0-0.7-0.4-1.3-0.9-1.3c-1,0-0.9-0.7-0.9-1.5c-0.2-6.4-5.6-10.9-11.2-9.6c-3.5,0.8-7.3,4.3-7.3,9.9c0,0.4,0.2,1-0.5,1.1
			c-1,0.1-1.4,0.9-1.4,1.9c0,1.8,0,3.6,0,5.4h0.1c0,2-0.2,4.1,0,6c0.6,5.4,5.1,9.8,9.9,10.1c6.6,0.5,11-4.3,11.9-9.1
			C79.4,75,78.9,70.6,78.9,66.3z M67.8,57.1c3.6,0,6.2,2.9,6.2,6.8c0,0.8-0.2,0.9-0.9,0.9c-1.8,0-3.5,0-5.3,0c-1.8,0-3.5,0-5.3,0
			c-0.6,0-0.8-0.1-0.8-0.9C61.6,60.1,64.2,57.2,67.8,57.1z M75.9,76.4c0.1,5.1-4.3,9.2-9.2,8.5c-4.3-0.7-7.2-4.5-7-9.2
			c0.1-2.2,0-4.4,0-6.6c0-0.7,0.2-0.9,0.8-0.9c2.5,0,4.9,0,7.4,0c2.4,0,4.8,0,7.2,0c0.7,0,0.8,0.2,0.8,0.9
			C75.9,71.6,75.8,74,75.9,76.4z M37.5,53.4c0-3.4-0.9-6.4-2.9-9c-1.2-1.6-2.7-2.8-4.3-3.8c3.8-4.1,3.2-9.8,0.2-13
			c-3.1-3.3-8-3.3-11,0.1c-3.2,3.6-3.1,8.8,0.3,12.8c-0.2,0.1-0.3,0.2-0.4,0.3c-3.7,2.3-6,5.7-6.6,10.4c-0.4,2.9-0.1,5.8-0.1,8.7
			c0,2.6,1.2,4,3.5,4c5.9,0,11.8,0,17.7,0c2.3,0,3.6-1.3,3.6-3.9C37.5,57.8,37.5,55.6,37.5,53.4z M25,28.6c2.6,0,4.8,2.4,4.8,5.3
			c0,3-2.1,5.4-4.7,5.4c-2.7,0-4.8-2.3-4.9-5.3C20.2,31.2,22.4,28.7,25,28.6z M33.5,60.6c-2.8-0.1-5.6,0-8.5,0c-2.8,0-5.6,0-8.4,0
			c-0.8,0-1-0.2-0.9-1.1c0.2-3-0.3-6.1,0.4-9c1.2-5,5.5-8.2,10.2-7.6c4.5,0.6,8,5,8,10.1c0,2.2,0,4.4,0,6.5
			C34.4,60.3,34.3,60.6,33.5,60.6z M78.9,66.3c0-0.7-0.4-1.3-0.9-1.3c-1,0-0.9-0.7-0.9-1.5c-0.2-6.4-5.6-10.9-11.2-9.6
			c-3.5,0.8-7.3,4.3-7.3,9.9c0,0.4,0.2,1-0.5,1.1c-1,0.1-1.4,0.9-1.4,1.9c0,1.8,0,3.6,0,5.4h0.1c0,2-0.2,4.1,0,6
			c0.6,5.4,5.1,9.8,9.9,10.1c6.6,0.5,11-4.3,11.9-9.1C79.4,75,78.9,70.6,78.9,66.3z M67.8,57.1c3.6,0,6.2,2.9,6.2,6.8
			c0,0.8-0.2,0.9-0.9,0.9c-1.8,0-3.5,0-5.3,0c-1.8,0-3.5,0-5.3,0c-0.6,0-0.8-0.1-0.8-0.9C61.6,60.1,64.2,57.2,67.8,57.1z M75.9,76.4
			c0.1,5.1-4.3,9.2-9.2,8.5c-4.3-0.7-7.2-4.5-7-9.2c0.1-2.2,0-4.4,0-6.6c0-0.7,0.2-0.9,0.8-0.9c2.5,0,4.9,0,7.4,0c2.4,0,4.8,0,7.2,0
			c0.7,0,0.8,0.2,0.8,0.9C75.9,71.6,75.8,74,75.9,76.4z M37.5,53.4c0-3.4-0.9-6.4-2.9-9c-1.2-1.6-2.7-2.8-4.3-3.8
			c3.8-4.1,3.2-9.8,0.2-13c-3.1-3.3-8-3.3-11,0.1c-3.2,3.6-3.1,8.8,0.3,12.8c-0.2,0.1-0.3,0.2-0.4,0.3c-3.7,2.3-6,5.7-6.6,10.4
			c-0.4,2.9-0.1,5.8-0.1,8.7c0,2.6,1.2,4,3.5,4c5.9,0,11.8,0,17.7,0c2.3,0,3.6-1.3,3.6-3.9C37.5,57.8,37.5,55.6,37.5,53.4z M25,28.6
			c2.6,0,4.8,2.4,4.8,5.3c0,3-2.1,5.4-4.7,5.4c-2.7,0-4.8-2.3-4.9-5.3C20.2,31.2,22.4,28.7,25,28.6z M33.5,60.6
			c-2.8-0.1-5.6,0-8.5,0c-2.8,0-5.6,0-8.4,0c-0.8,0-1-0.2-0.9-1.1c0.2-3-0.3-6.1,0.4-9c1.2-5,5.5-8.2,10.2-7.6c4.5,0.6,8,5,8,10.1
			c0,2.2,0,4.4,0,6.5C34.4,60.3,34.3,60.6,33.5,60.6z M78.9,66.3c0-0.7-0.4-1.3-0.9-1.3c-1,0-0.9-0.7-0.9-1.5
			c-0.2-6.4-5.6-10.9-11.2-9.6c-3.5,0.8-7.3,4.3-7.3,9.9c0,0.4,0.2,1-0.5,1.1c-1,0.1-1.4,0.9-1.4,1.9c0,1.8,0,3.6,0,5.4h0.1
			c0,2-0.2,4.1,0,6c0.6,5.4,5.1,9.8,9.9,10.1c6.6,0.5,11-4.3,11.9-9.1C79.4,75,78.9,70.6,78.9,66.3z M67.8,57.1
			c3.6,0,6.2,2.9,6.2,6.8c0,0.8-0.2,0.9-0.9,0.9c-1.8,0-3.5,0-5.3,0c-1.8,0-3.5,0-5.3,0c-0.6,0-0.8-0.1-0.8-0.9
			C61.6,60.1,64.2,57.2,67.8,57.1z M75.9,76.4c0.1,5.1-4.3,9.2-9.2,8.5c-4.3-0.7-7.2-4.5-7-9.2c0.1-2.2,0-4.4,0-6.6
			c0-0.7,0.2-0.9,0.8-0.9c2.5,0,4.9,0,7.4,0c2.4,0,4.8,0,7.2,0c0.7,0,0.8,0.2,0.8,0.9C75.9,71.6,75.8,74,75.9,76.4z M37.5,53.4
			c0-3.4-0.9-6.4-2.9-9c-1.2-1.6-2.7-2.8-4.3-3.8c3.8-4.1,3.2-9.8,0.2-13c-3.1-3.3-8-3.3-11,0.1c-3.2,3.6-3.1,8.8,0.3,12.8
			c-0.2,0.1-0.3,0.2-0.4,0.3c-3.7,2.3-6,5.7-6.6,10.4c-0.4,2.9-0.1,5.8-0.1,8.7c0,2.6,1.2,4,3.5,4c5.9,0,11.8,0,17.7,0
			c2.3,0,3.6-1.3,3.6-3.9C37.5,57.8,37.5,55.6,37.5,53.4z M25,28.6c2.6,0,4.8,2.4,4.8,5.3c0,3-2.1,5.4-4.7,5.4
			c-2.7,0-4.8-2.3-4.9-5.3C20.2,31.2,22.4,28.7,25,28.6z M33.5,60.6c-2.8-0.1-5.6,0-8.5,0c-2.8,0-5.6,0-8.4,0c-0.8,0-1-0.2-0.9-1.1
			c0.2-3-0.3-6.1,0.4-9c1.2-5,5.5-8.2,10.2-7.6c4.5,0.6,8,5,8,10.1c0,2.2,0,4.4,0,6.5C34.4,60.3,34.3,60.6,33.5,60.6z M78.9,66.3
			c0-0.7-0.4-1.3-0.9-1.3c-1,0-0.9-0.7-0.9-1.5c-0.2-6.4-5.6-10.9-11.2-9.6c-3.5,0.8-7.3,4.3-7.3,9.9c0,0.4,0.2,1-0.5,1.1
			c-1,0.1-1.4,0.9-1.4,1.9c0,1.8,0,3.6,0,5.4h0.1c0,2-0.2,4.1,0,6c0.6,5.4,5.1,9.8,9.9,10.1c6.6,0.5,11-4.3,11.9-9.1
			C79.4,75,78.9,70.6,78.9,66.3z M67.8,57.1c3.6,0,6.2,2.9,6.2,6.8c0,0.8-0.2,0.9-0.9,0.9c-1.8,0-3.5,0-5.3,0c-1.8,0-3.5,0-5.3,0
			c-0.6,0-0.8-0.1-0.8-0.9C61.6,60.1,64.2,57.2,67.8,57.1z M75.9,76.4c0.1,5.1-4.3,9.2-9.2,8.5c-4.3-0.7-7.2-4.5-7-9.2
			c0.1-2.2,0-4.4,0-6.6c0-0.7,0.2-0.9,0.8-0.9c2.5,0,4.9,0,7.4,0c2.4,0,4.8,0,7.2,0c0.7,0,0.8,0.2,0.8,0.9
			C75.9,71.6,75.8,74,75.9,76.4z M37.5,53.4c0-3.4-0.9-6.4-2.9-9c-1.2-1.6-2.7-2.8-4.3-3.8c3.8-4.1,3.2-9.8,0.2-13
			c-3.1-3.3-8-3.3-11,0.1c-3.2,3.6-3.1,8.8,0.3,12.8c-0.2,0.1-0.3,0.2-0.4,0.3c-3.7,2.3-6,5.7-6.6,10.4c-0.4,2.9-0.1,5.8-0.1,8.7
			c0,2.6,1.2,4,3.5,4c5.9,0,11.8,0,17.7,0c2.3,0,3.6-1.3,3.6-3.9C37.5,57.8,37.5,55.6,37.5,53.4z M25,28.6c2.6,0,4.8,2.4,4.8,5.3
			c0,3-2.1,5.4-4.7,5.4c-2.7,0-4.8-2.3-4.9-5.3C20.2,31.2,22.4,28.7,25,28.6z M33.5,60.6c-2.8-0.1-5.6,0-8.5,0c-2.8,0-5.6,0-8.4,0
			c-0.8,0-1-0.2-0.9-1.1c0.2-3-0.3-6.1,0.4-9c1.2-5,5.5-8.2,10.2-7.6c4.5,0.6,8,5,8,10.1c0,2.2,0,4.4,0,6.5
			C34.4,60.3,34.3,60.6,33.5,60.6z M78.9,66.3c0-0.7-0.4-1.3-0.9-1.3c-1,0-0.9-0.7-0.9-1.5c-0.2-6.4-5.6-10.9-11.2-9.6
			c-3.5,0.8-7.3,4.3-7.3,9.9c0,0.4,0.2,1-0.5,1.1c-1,0.1-1.4,0.9-1.4,1.9c0,1.8,0,3.6,0,5.4h0.1c0,2-0.2,4.1,0,6
			c0.6,5.4,5.1,9.8,9.9,10.1c6.6,0.5,11-4.3,11.9-9.1C79.4,75,78.9,70.6,78.9,66.3z M67.8,57.1c3.6,0,6.2,2.9,6.2,6.8
			c0,0.8-0.2,0.9-0.9,0.9c-1.8,0-3.5,0-5.3,0c-1.8,0-3.5,0-5.3,0c-0.6,0-0.8-0.1-0.8-0.9C61.6,60.1,64.2,57.2,67.8,57.1z M75.9,76.4
			c0.1,5.1-4.3,9.2-9.2,8.5c-4.3-0.7-7.2-4.5-7-9.2c0.1-2.2,0-4.4,0-6.6c0-0.7,0.2-0.9,0.8-0.9c2.5,0,4.9,0,7.4,0c2.4,0,4.8,0,7.2,0
			c0.7,0,0.8,0.2,0.8,0.9C75.9,71.6,75.8,74,75.9,76.4z M37.5,53.4c0-3.4-0.9-6.4-2.9-9c-1.2-1.6-2.7-2.8-4.3-3.8
			c3.8-4.1,3.2-9.8,0.2-13c-3.1-3.3-8-3.3-11,0.1c-3.2,3.6-3.1,8.8,0.3,12.8c-0.2,0.1-0.3,0.2-0.4,0.3c-3.7,2.3-6,5.7-6.6,10.4
			c-0.4,2.9-0.1,5.8-0.1,8.7c0,2.6,1.2,4,3.5,4c5.9,0,11.8,0,17.7,0c2.3,0,3.6-1.3,3.6-3.9C37.5,57.8,37.5,55.6,37.5,53.4z M25,28.6
			c2.6,0,4.8,2.4,4.8,5.3c0,3-2.1,5.4-4.7,5.4c-2.7,0-4.8-2.3-4.9-5.3C20.2,31.2,22.4,28.7,25,28.6z M33.5,60.6
			c-2.8-0.1-5.6,0-8.5,0c-2.8,0-5.6,0-8.4,0c-0.8,0-1-0.2-0.9-1.1c0.2-3-0.3-6.1,0.4-9c1.2-5,5.5-8.2,10.2-7.6c4.5,0.6,8,5,8,10.1
			c0,2.2,0,4.4,0,6.5C34.4,60.3,34.3,60.6,33.5,60.6z M78.9,66.3c0-0.7-0.4-1.3-0.9-1.3c-1,0-0.9-0.7-0.9-1.5
			c-0.2-6.4-5.6-10.9-11.2-9.6c-3.5,0.8-7.3,4.3-7.3,9.9c0,0.4,0.2,1-0.5,1.1c-1,0.1-1.4,0.9-1.4,1.9c0,1.8,0,3.6,0,5.4h0.1
			c0,2-0.2,4.1,0,6c0.6,5.4,5.1,9.8,9.9,10.1c6.6,0.5,11-4.3,11.9-9.1C79.4,75,78.9,70.6,78.9,66.3z M67.8,57.1
			c3.6,0,6.2,2.9,6.2,6.8c0,0.8-0.2,0.9-0.9,0.9c-1.8,0-3.5,0-5.3,0c-1.8,0-3.5,0-5.3,0c-0.6,0-0.8-0.1-0.8-0.9
			C61.6,60.1,64.2,57.2,67.8,57.1z M75.9,76.4c0.1,5.1-4.3,9.2-9.2,8.5c-4.3-0.7-7.2-4.5-7-9.2c0.1-2.2,0-4.4,0-6.6
			c0-0.7,0.2-0.9,0.8-0.9c2.5,0,4.9,0,7.4,0c2.4,0,4.8,0,7.2,0c0.7,0,0.8,0.2,0.8,0.9C75.9,71.6,75.8,74,75.9,76.4z M37.5,53.4
			c0-3.4-0.9-6.4-2.9-9c-1.2-1.6-2.7-2.8-4.3-3.8c3.8-4.1,3.2-9.8,0.2-13c-3.1-3.3-8-3.3-11,0.1c-3.2,3.6-3.1,8.8,0.3,12.8
			c-0.2,0.1-0.3,0.2-0.4,0.3c-3.7,2.3-6,5.7-6.6,10.4c-0.4,2.9-0.1,5.8-0.1,8.7c0,2.6,1.2,4,3.5,4c5.9,0,11.8,0,17.7,0
			c2.3,0,3.6-1.3,3.6-3.9C37.5,57.8,37.5,55.6,37.5,53.4z M25,28.6c2.6,0,4.8,2.4,4.8,5.3c0,3-2.1,5.4-4.7,5.4
			c-2.7,0-4.8-2.3-4.9-5.3C20.2,31.2,22.4,28.7,25,28.6z M33.5,60.6c-2.8-0.1-5.6,0-8.5,0c-2.8,0-5.6,0-8.4,0c-0.8,0-1-0.2-0.9-1.1
			c0.2-3-0.3-6.1,0.4-9c1.2-5,5.5-8.2,10.2-7.6c4.5,0.6,8,5,8,10.1c0,2.2,0,4.4,0,6.5C34.4,60.3,34.3,60.6,33.5,60.6z M78.9,66.3
			c0-0.7-0.4-1.3-0.9-1.3c-1,0-0.9-0.7-0.9-1.5c-0.2-6.4-5.6-10.9-11.2-9.6c-3.5,0.8-7.3,4.3-7.3,9.9c0,0.4,0.2,1-0.5,1.1
			c-1,0.1-1.4,0.9-1.4,1.9c0,1.8,0,3.6,0,5.4h0.1c0,2-0.2,4.1,0,6c0.6,5.4,5.1,9.8,9.9,10.1c6.6,0.5,11-4.3,11.9-9.1
			C79.4,75,78.9,70.6,78.9,66.3z M67.8,57.1c3.6,0,6.2,2.9,6.2,6.8c0,0.8-0.2,0.9-0.9,0.9c-1.8,0-3.5,0-5.3,0c-1.8,0-3.5,0-5.3,0
			c-0.6,0-0.8-0.1-0.8-0.9C61.6,60.1,64.2,57.2,67.8,57.1z M75.9,76.4c0.1,5.1-4.3,9.2-9.2,8.5c-4.3-0.7-7.2-4.5-7-9.2
			c0.1-2.2,0-4.4,0-6.6c0-0.7,0.2-0.9,0.8-0.9c2.5,0,4.9,0,7.4,0c2.4,0,4.8,0,7.2,0c0.7,0,0.8,0.2,0.8,0.9
			C75.9,71.6,75.8,74,75.9,76.4z M100,14.1c0-1.6-0.2-3.2-0.7-4.7C97.5,3.5,93,0,87,0C74.7,0,62.4,0,50,0C37.8,0,25.5,0,13.2,0
			c-1,0-2,0-2.9,0.2C4,1.6,0,7,0,14.2c0,14.6,0,29.1,0,43.7c0,1.6,0.2,3.2,0.6,4.7c1.8,5.8,6.4,9.5,12,9.5c10.5,0,21,0,31.5,0
			c0.7,0,1,0.2,1.2,1.1c2,13,8.5,21.8,19.8,26.3c2,0.8,3.8,0.7,5.8-0.1C78,96.4,83.7,91.7,87.3,84c1.7-3.6,2.7-7.5,3.3-11.5
			c0.1-0.5,0.2-0.8,0.7-1c5.5-2.1,8.7-7.1,8.7-13.6C100,43.3,100,28.7,100,14.1z M88,67.2c-0.6,7.2-2,14.1-6.2,19.8
			c-3.6,4.9-8.4,7.8-13.7,9.6c-0.3,0.1-0.5,0-0.7,0c-6.6-2.3-12.1-6.1-15.7-13c-2.3-4.5-3.4-9.4-3.9-14.4c-0.3-3.1-0.5-6.3-0.4-9.4
			c0-2.2,0.1-4.4,0-6.5c-0.1-1.3,0.4-1.6,1.4-1.7c5.2-0.9,10.2-2.6,15.1-4.9c1.1-0.5,2.2-1.1,3.3-1.7c0.4-0.2,0.8-0.2,1.2,0
			c5.9,3.3,12.2,5.5,18.7,6.7c0.8,0.1,1.1,0.5,1.1,1.4C88.2,57.8,88.4,62.5,88,67.2z M66.8,32.5c-5.8,0.3-11.3,5.7-12.4,12.1
			c0,0.2,0,0.3-0.1,0.5c-0.3,0.6,0.1,1.4-0.4,1.8c-0.6,0.4-1.4,0.5-2.1,0.7c-0.7,0.2-0.5-0.4-0.4-0.8c0.5-5.9,2.9-10.6,7.3-13.8
			c9.7-7.1,22.7-1.3,25.3,11.4c0.2,0.9,0.3,1.7,0.4,2.6c0,0.5-0.1,0.8-0.6,0.6c-0.1,0-0.1-0.1-0.2-0.1c-1.3-0.1-1.9-0.7-2.2-2.4
			C79.9,37,74,32.1,66.8,32.5z M78.2,45.5c-0.3,0.3-0.6,0-0.9-0.1c-2.8-1-5.6-2.3-8.2-3.9c-0.9-0.5-1.6-0.5-2.4,0
			c-2.7,1.7-5.6,2.9-8.5,4.1c-0.2,0.1-0.5,0.1-0.8,0.2c0.7-3.6,2.3-6.3,5-8.1c6-4.1,13.8-0.7,15.8,6.8
			C78.2,44.8,78.4,45.2,78.2,45.5z M96.9,58.4c0,4.1-2.5,8.1-5.8,9.3c0.2-4.1,0.4-8.2,0.3-12.3c-0.1-1.6-0.1-3.1-0.1-4.7
			c0-1.3-0.4-1.8-1.6-2.1c-0.7-0.2-1.7,0.1-2.1-0.6c-0.4-0.5-0.1-1.6-0.2-2.4C86.5,36,79.4,28,70.6,26.7c-10.5-1.6-19.8,5.7-22,17.3
			c-0.2,1.1-0.4,2.2-0.3,3.4c0.1,0.8-0.3,1-0.9,1.1c-0.4,0.1-0.9,0.1-1.3,0.2c-1.3,0.3-1.7,0.7-1.7,2.3c0,5.5-0.3,11,0.2,16.6
			c0.1,1-0.2,1.2-1,1.2c-10.2,0-20.5-0.1-30.7,0C7.1,68.7,3,63.6,3,57.7c0.1-12,0-23.9,0-35.9c0-0.9,0.1-1.2,1-1.2
			c30.6,0,61.2,0,91.8,0c0.8,0,1,0.1,1,1.1C96.9,33.9,96.9,46.2,96.9,58.4z M96.7,16.9c-0.5,0.7-1.9,0.2-2.9,0.2
			c-14.6,0-29.2,0-43.8,0c-15.3,0-30.5,0-45.8,0c-0.9,0-1.2-0.2-1.1-1.2c0.1-1.7-0.1-3.4,0.4-5.1c1.2-4.4,4.7-7.4,8.8-7.4
			c25.1,0,50.3,0,75.4,0c5.1,0,9.1,4.6,9.2,10.2C96.9,14.8,97.3,16.2,96.7,16.9z M78,65c-1,0-0.9-0.7-0.9-1.5
			c-0.2-6.4-5.6-10.9-11.2-9.6c-3.5,0.8-7.3,4.3-7.3,9.9c0,0.4,0.2,1-0.5,1.1c-1,0.1-1.4,0.9-1.4,1.9c0,1.8,0,3.6,0,5.4h0.1
			c0,2-0.2,4.1,0,6c0.6,5.4,5.1,9.8,9.9,10.1c6.6,0.5,11-4.3,11.9-9.1c0.8-4.3,0.3-8.7,0.3-13C78.9,65.6,78.5,65,78,65z M67.8,57.1
			c3.6,0,6.2,2.9,6.2,6.8c0,0.8-0.2,0.9-0.9,0.9c-1.8,0-3.5,0-5.3,0c-1.8,0-3.5,0-5.3,0c-0.6,0-0.8-0.1-0.8-0.9
			C61.6,60.1,64.2,57.2,67.8,57.1z M75.9,76.4c0.1,5.1-4.3,9.2-9.2,8.5c-4.3-0.7-7.2-4.5-7-9.2c0.1-2.2,0-4.4,0-6.6
			c0-0.7,0.2-0.9,0.8-0.9c2.5,0,4.9,0,7.4,0c2.4,0,4.8,0,7.2,0c0.7,0,0.8,0.2,0.8,0.9C75.9,71.6,75.8,74,75.9,76.4z M34.6,44.4
			c-1.2-1.6-2.7-2.8-4.3-3.8c3.8-4.1,3.2-9.8,0.2-13c-3.1-3.3-8-3.3-11,0.1c-3.2,3.6-3.1,8.8,0.3,12.8c-0.2,0.1-0.3,0.2-0.4,0.3
			c-3.7,2.3-6,5.7-6.6,10.4c-0.4,2.9-0.1,5.8-0.1,8.7c0,2.6,1.2,4,3.5,4c5.9,0,11.8,0,17.7,0c2.3,0,3.6-1.3,3.6-3.9
			c0-2.2,0-4.4,0-6.7C37.5,50,36.6,47,34.6,44.4z M25,28.6c2.6,0,4.8,2.4,4.8,5.3c0,3-2.1,5.4-4.7,5.4c-2.7,0-4.8-2.3-4.9-5.3
			C20.2,31.2,22.4,28.7,25,28.6z M33.5,60.6c-2.8-0.1-5.6,0-8.5,0c-2.8,0-5.6,0-8.4,0c-0.8,0-1-0.2-0.9-1.1c0.2-3-0.3-6.1,0.4-9
			c1.2-5,5.5-8.2,10.2-7.6c4.5,0.6,8,5,8,10.1c0,2.2,0,4.4,0,6.5C34.4,60.3,34.3,60.6,33.5,60.6z M78.9,66.3c0-0.7-0.4-1.3-0.9-1.3
			c-1,0-0.9-0.7-0.9-1.5c-0.2-6.4-5.6-10.9-11.2-9.6c-3.5,0.8-7.3,4.3-7.3,9.9c0,0.4,0.2,1-0.5,1.1c-1,0.1-1.4,0.9-1.4,1.9
			c0,1.8,0,3.6,0,5.4h0.1c0,2-0.2,4.1,0,6c0.6,5.4,5.1,9.8,9.9,10.1c6.6,0.5,11-4.3,11.9-9.1C79.4,75,78.9,70.6,78.9,66.3z
			 M67.8,57.1c3.6,0,6.2,2.9,6.2,6.8c0,0.8-0.2,0.9-0.9,0.9c-1.8,0-3.5,0-5.3,0c-1.8,0-3.5,0-5.3,0c-0.6,0-0.8-0.1-0.8-0.9
			C61.6,60.1,64.2,57.2,67.8,57.1z M75.9,76.4c0.1,5.1-4.3,9.2-9.2,8.5c-4.3-0.7-7.2-4.5-7-9.2c0.1-2.2,0-4.4,0-6.6
			c0-0.7,0.2-0.9,0.8-0.9c2.5,0,4.9,0,7.4,0c2.4,0,4.8,0,7.2,0c0.7,0,0.8,0.2,0.8,0.9C75.9,71.6,75.8,74,75.9,76.4z M37.5,53.4
			c0-3.4-0.9-6.4-2.9-9c-1.2-1.6-2.7-2.8-4.3-3.8c3.8-4.1,3.2-9.8,0.2-13c-3.1-3.3-8-3.3-11,0.1c-3.2,3.6-3.1,8.8,0.3,12.8
			c-0.2,0.1-0.3,0.2-0.4,0.3c-3.7,2.3-6,5.7-6.6,10.4c-0.4,2.9-0.1,5.8-0.1,8.7c0,2.6,1.2,4,3.5,4c5.9,0,11.8,0,17.7,0
			c2.3,0,3.6-1.3,3.6-3.9C37.5,57.8,37.5,55.6,37.5,53.4z M25,28.6c2.6,0,4.8,2.4,4.8,5.3c0,3-2.1,5.4-4.7,5.4
			c-2.7,0-4.8-2.3-4.9-5.3C20.2,31.2,22.4,28.7,25,28.6z M33.5,60.6c-2.8-0.1-5.6,0-8.5,0c-2.8,0-5.6,0-8.4,0c-0.8,0-1-0.2-0.9-1.1
			c0.2-3-0.3-6.1,0.4-9c1.2-5,5.5-8.2,10.2-7.6c4.5,0.6,8,5,8,10.1c0,2.2,0,4.4,0,6.5C34.4,60.3,34.3,60.6,33.5,60.6z M78.9,66.3
			c0-0.7-0.4-1.3-0.9-1.3c-1,0-0.9-0.7-0.9-1.5c-0.2-6.4-5.6-10.9-11.2-9.6c-3.5,0.8-7.3,4.3-7.3,9.9c0,0.4,0.2,1-0.5,1.1
			c-1,0.1-1.4,0.9-1.4,1.9c0,1.8,0,3.6,0,5.4h0.1c0,2-0.2,4.1,0,6c0.6,5.4,5.1,9.8,9.9,10.1c6.6,0.5,11-4.3,11.9-9.1
			C79.4,75,78.9,70.6,78.9,66.3z M67.8,57.1c3.6,0,6.2,2.9,6.2,6.8c0,0.8-0.2,0.9-0.9,0.9c-1.8,0-3.5,0-5.3,0c-1.8,0-3.5,0-5.3,0
			c-0.6,0-0.8-0.1-0.8-0.9C61.6,60.1,64.2,57.2,67.8,57.1z M75.9,76.4c0.1,5.1-4.3,9.2-9.2,8.5c-4.3-0.7-7.2-4.5-7-9.2
			c0.1-2.2,0-4.4,0-6.6c0-0.7,0.2-0.9,0.8-0.9c2.5,0,4.9,0,7.4,0c2.4,0,4.8,0,7.2,0c0.7,0,0.8,0.2,0.8,0.9
			C75.9,71.6,75.8,74,75.9,76.4z M37.5,53.4c0-3.4-0.9-6.4-2.9-9c-1.2-1.6-2.7-2.8-4.3-3.8c3.8-4.1,3.2-9.8,0.2-13
			c-3.1-3.3-8-3.3-11,0.1c-3.2,3.6-3.1,8.8,0.3,12.8c-0.2,0.1-0.3,0.2-0.4,0.3c-3.7,2.3-6,5.7-6.6,10.4c-0.4,2.9-0.1,5.8-0.1,8.7
			c0,2.6,1.2,4,3.5,4c5.9,0,11.8,0,17.7,0c2.3,0,3.6-1.3,3.6-3.9C37.5,57.8,37.5,55.6,37.5,53.4z M25,28.6c2.6,0,4.8,2.4,4.8,5.3
			c0,3-2.1,5.4-4.7,5.4c-2.7,0-4.8-2.3-4.9-5.3C20.2,31.2,22.4,28.7,25,28.6z M33.5,60.6c-2.8-0.1-5.6,0-8.5,0c-2.8,0-5.6,0-8.4,0
			c-0.8,0-1-0.2-0.9-1.1c0.2-3-0.3-6.1,0.4-9c1.2-5,5.5-8.2,10.2-7.6c4.5,0.6,8,5,8,10.1c0,2.2,0,4.4,0,6.5
			C34.4,60.3,34.3,60.6,33.5,60.6z M78.9,66.3c0-0.7-0.4-1.3-0.9-1.3c-1,0-0.9-0.7-0.9-1.5c-0.2-6.4-5.6-10.9-11.2-9.6
			c-3.5,0.8-7.3,4.3-7.3,9.9c0,0.4,0.2,1-0.5,1.1c-1,0.1-1.4,0.9-1.4,1.9c0,1.8,0,3.6,0,5.4h0.1c0,2-0.2,4.1,0,6
			c0.6,5.4,5.1,9.8,9.9,10.1c6.6,0.5,11-4.3,11.9-9.1C79.4,75,78.9,70.6,78.9,66.3z M67.8,57.1c3.6,0,6.2,2.9,6.2,6.8
			c0,0.8-0.2,0.9-0.9,0.9c-1.8,0-3.5,0-5.3,0c-1.8,0-3.5,0-5.3,0c-0.6,0-0.8-0.1-0.8-0.9C61.6,60.1,64.2,57.2,67.8,57.1z M75.9,76.4
			c0.1,5.1-4.3,9.2-9.2,8.5c-4.3-0.7-7.2-4.5-7-9.2c0.1-2.2,0-4.4,0-6.6c0-0.7,0.2-0.9,0.8-0.9c2.5,0,4.9,0,7.4,0c2.4,0,4.8,0,7.2,0
			c0.7,0,0.8,0.2,0.8,0.9C75.9,71.6,75.8,74,75.9,76.4z M37.5,53.4c0-3.4-0.9-6.4-2.9-9c-1.2-1.6-2.7-2.8-4.3-3.8
			c3.8-4.1,3.2-9.8,0.2-13c-3.1-3.3-8-3.3-11,0.1c-3.2,3.6-3.1,8.8,0.3,12.8c-0.2,0.1-0.3,0.2-0.4,0.3c-3.7,2.3-6,5.7-6.6,10.4
			c-0.4,2.9-0.1,5.8-0.1,8.7c0,2.6,1.2,4,3.5,4c5.9,0,11.8,0,17.7,0c2.3,0,3.6-1.3,3.6-3.9C37.5,57.8,37.5,55.6,37.5,53.4z M25,28.6
			c2.6,0,4.8,2.4,4.8,5.3c0,3-2.1,5.4-4.7,5.4c-2.7,0-4.8-2.3-4.9-5.3C20.2,31.2,22.4,28.7,25,28.6z M33.5,60.6
			c-2.8-0.1-5.6,0-8.5,0c-2.8,0-5.6,0-8.4,0c-0.8,0-1-0.2-0.9-1.1c0.2-3-0.3-6.1,0.4-9c1.2-5,5.5-8.2,10.2-7.6c4.5,0.6,8,5,8,10.1
			c0,2.2,0,4.4,0,6.5C34.4,60.3,34.3,60.6,33.5,60.6z M78.9,66.3c0-0.7-0.4-1.3-0.9-1.3c-1,0-0.9-0.7-0.9-1.5
			c-0.2-6.4-5.6-10.9-11.2-9.6c-3.5,0.8-7.3,4.3-7.3,9.9c0,0.4,0.2,1-0.5,1.1c-1,0.1-1.4,0.9-1.4,1.9c0,1.8,0,3.6,0,5.4h0.1
			c0,2-0.2,4.1,0,6c0.6,5.4,5.1,9.8,9.9,10.1c6.6,0.5,11-4.3,11.9-9.1C79.4,75,78.9,70.6,78.9,66.3z M67.8,57.1
			c3.6,0,6.2,2.9,6.2,6.8c0,0.8-0.2,0.9-0.9,0.9c-1.8,0-3.5,0-5.3,0c-1.8,0-3.5,0-5.3,0c-0.6,0-0.8-0.1-0.8-0.9
			C61.6,60.1,64.2,57.2,67.8,57.1z M75.9,76.4c0.1,5.1-4.3,9.2-9.2,8.5c-4.3-0.7-7.2-4.5-7-9.2c0.1-2.2,0-4.4,0-6.6
			c0-0.7,0.2-0.9,0.8-0.9c2.5,0,4.9,0,7.4,0c2.4,0,4.8,0,7.2,0c0.7,0,0.8,0.2,0.8,0.9C75.9,71.6,75.8,74,75.9,76.4z M37.5,53.4
			c0-3.4-0.9-6.4-2.9-9c-1.2-1.6-2.7-2.8-4.3-3.8c3.8-4.1,3.2-9.8,0.2-13c-3.1-3.3-8-3.3-11,0.1c-3.2,3.6-3.1,8.8,0.3,12.8
			c-0.2,0.1-0.3,0.2-0.4,0.3c-3.7,2.3-6,5.7-6.6,10.4c-0.4,2.9-0.1,5.8-0.1,8.7c0,2.6,1.2,4,3.5,4c5.9,0,11.8,0,17.7,0
			c2.3,0,3.6-1.3,3.6-3.9C37.5,57.8,37.5,55.6,37.5,53.4z M25,28.6c2.6,0,4.8,2.4,4.8,5.3c0,3-2.1,5.4-4.7,5.4
			c-2.7,0-4.8-2.3-4.9-5.3C20.2,31.2,22.4,28.7,25,28.6z M33.5,60.6c-2.8-0.1-5.6,0-8.5,0c-2.8,0-5.6,0-8.4,0c-0.8,0-1-0.2-0.9-1.1
			c0.2-3-0.3-6.1,0.4-9c1.2-5,5.5-8.2,10.2-7.6c4.5,0.6,8,5,8,10.1c0,2.2,0,4.4,0,6.5C34.4,60.3,34.3,60.6,33.5,60.6z M78.9,66.3
			c0-0.7-0.4-1.3-0.9-1.3c-1,0-0.9-0.7-0.9-1.5c-0.2-6.4-5.6-10.9-11.2-9.6c-3.5,0.8-7.3,4.3-7.3,9.9c0,0.4,0.2,1-0.5,1.1
			c-1,0.1-1.4,0.9-1.4,1.9c0,1.8,0,3.6,0,5.4h0.1c0,2-0.2,4.1,0,6c0.6,5.4,5.1,9.8,9.9,10.1c6.6,0.5,11-4.3,11.9-9.1
			C79.4,75,78.9,70.6,78.9,66.3z M67.8,57.1c3.6,0,6.2,2.9,6.2,6.8c0,0.8-0.2,0.9-0.9,0.9c-1.8,0-3.5,0-5.3,0c-1.8,0-3.5,0-5.3,0
			c-0.6,0-0.8-0.1-0.8-0.9C61.6,60.1,64.2,57.2,67.8,57.1z M75.9,76.4c0.1,5.1-4.3,9.2-9.2,8.5c-4.3-0.7-7.2-4.5-7-9.2
			c0.1-2.2,0-4.4,0-6.6c0-0.7,0.2-0.9,0.8-0.9c2.5,0,4.9,0,7.4,0c2.4,0,4.8,0,7.2,0c0.7,0,0.8,0.2,0.8,0.9
			C75.9,71.6,75.8,74,75.9,76.4z M37.5,53.4c0-3.4-0.9-6.4-2.9-9c-1.2-1.6-2.7-2.8-4.3-3.8c3.8-4.1,3.2-9.8,0.2-13
			c-3.1-3.3-8-3.3-11,0.1c-3.2,3.6-3.1,8.8,0.3,12.8c-0.2,0.1-0.3,0.2-0.4,0.3c-3.7,2.3-6,5.7-6.6,10.4c-0.4,2.9-0.1,5.8-0.1,8.7
			c0,2.6,1.2,4,3.5,4c5.9,0,11.8,0,17.7,0c2.3,0,3.6-1.3,3.6-3.9C37.5,57.8,37.5,55.6,37.5,53.4z M25,28.6c2.6,0,4.8,2.4,4.8,5.3
			c0,3-2.1,5.4-4.7,5.4c-2.7,0-4.8-2.3-4.9-5.3C20.2,31.2,22.4,28.7,25,28.6z M33.5,60.6c-2.8-0.1-5.6,0-8.5,0c-2.8,0-5.6,0-8.4,0
			c-0.8,0-1-0.2-0.9-1.1c0.2-3-0.3-6.1,0.4-9c1.2-5,5.5-8.2,10.2-7.6c4.5,0.6,8,5,8,10.1c0,2.2,0,4.4,0,6.5
			C34.4,60.3,34.3,60.6,33.5,60.6z M78.9,66.3c0-0.7-0.4-1.3-0.9-1.3c-1,0-0.9-0.7-0.9-1.5c-0.2-6.4-5.6-10.9-11.2-9.6
			c-3.5,0.8-7.3,4.3-7.3,9.9c0,0.4,0.2,1-0.5,1.1c-1,0.1-1.4,0.9-1.4,1.9c0,1.8,0,3.6,0,5.4h0.1c0,2-0.2,4.1,0,6
			c0.6,5.4,5.1,9.8,9.9,10.1c6.6,0.5,11-4.3,11.9-9.1C79.4,75,78.9,70.6,78.9,66.3z M67.8,57.1c3.6,0,6.2,2.9,6.2,6.8
			c0,0.8-0.2,0.9-0.9,0.9c-1.8,0-3.5,0-5.3,0c-1.8,0-3.5,0-5.3,0c-0.6,0-0.8-0.1-0.8-0.9C61.6,60.1,64.2,57.2,67.8,57.1z M75.9,76.4
			c0.1,5.1-4.3,9.2-9.2,8.5c-4.3-0.7-7.2-4.5-7-9.2c0.1-2.2,0-4.4,0-6.6c0-0.7,0.2-0.9,0.8-0.9c2.5,0,4.9,0,7.4,0c2.4,0,4.8,0,7.2,0
			c0.7,0,0.8,0.2,0.8,0.9C75.9,71.6,75.8,74,75.9,76.4z M37.5,53.4c0-3.4-0.9-6.4-2.9-9c-1.2-1.6-2.7-2.8-4.3-3.8
			c3.8-4.1,3.2-9.8,0.2-13c-3.1-3.3-8-3.3-11,0.1c-3.2,3.6-3.1,8.8,0.3,12.8c-0.2,0.1-0.3,0.2-0.4,0.3c-3.7,2.3-6,5.7-6.6,10.4
			c-0.4,2.9-0.1,5.8-0.1,8.7c0,2.6,1.2,4,3.5,4c5.9,0,11.8,0,17.7,0c2.3,0,3.6-1.3,3.6-3.9C37.5,57.8,37.5,55.6,37.5,53.4z M25,28.6
			c2.6,0,4.8,2.4,4.8,5.3c0,3-2.1,5.4-4.7,5.4c-2.7,0-4.8-2.3-4.9-5.3C20.2,31.2,22.4,28.7,25,28.6z M33.5,60.6
			c-2.8-0.1-5.6,0-8.5,0c-2.8,0-5.6,0-8.4,0c-0.8,0-1-0.2-0.9-1.1c0.2-3-0.3-6.1,0.4-9c1.2-5,5.5-8.2,10.2-7.6c4.5,0.6,8,5,8,10.1
			c0,2.2,0,4.4,0,6.5C34.4,60.3,34.3,60.6,33.5,60.6z M78.9,66.3c0-0.7-0.4-1.3-0.9-1.3c-1,0-0.9-0.7-0.9-1.5
			c-0.2-6.4-5.6-10.9-11.2-9.6c-3.5,0.8-7.3,4.3-7.3,9.9c0,0.4,0.2,1-0.5,1.1c-1,0.1-1.4,0.9-1.4,1.9c0,1.8,0,3.6,0,5.4h0.1
			c0,2-0.2,4.1,0,6c0.6,5.4,5.1,9.8,9.9,10.1c6.6,0.5,11-4.3,11.9-9.1C79.4,75,78.9,70.6,78.9,66.3z M67.8,57.1
			c3.6,0,6.2,2.9,6.2,6.8c0,0.8-0.2,0.9-0.9,0.9c-1.8,0-3.5,0-5.3,0c-1.8,0-3.5,0-5.3,0c-0.6,0-0.8-0.1-0.8-0.9
			C61.6,60.1,64.2,57.2,67.8,57.1z M75.9,76.4c0.1,5.1-4.3,9.2-9.2,8.5c-4.3-0.7-7.2-4.5-7-9.2c0.1-2.2,0-4.4,0-6.6
			c0-0.7,0.2-0.9,0.8-0.9c2.5,0,4.9,0,7.4,0c2.4,0,4.8,0,7.2,0c0.7,0,0.8,0.2,0.8,0.9C75.9,71.6,75.8,74,75.9,76.4z M37.5,53.4
			c0-3.4-0.9-6.4-2.9-9c-1.2-1.6-2.7-2.8-4.3-3.8c3.8-4.1,3.2-9.8,0.2-13c-3.1-3.3-8-3.3-11,0.1c-3.2,3.6-3.1,8.8,0.3,12.8
			c-0.2,0.1-0.3,0.2-0.4,0.3c-3.7,2.3-6,5.7-6.6,10.4c-0.4,2.9-0.1,5.8-0.1,8.7c0,2.6,1.2,4,3.5,4c5.9,0,11.8,0,17.7,0
			c2.3,0,3.6-1.3,3.6-3.9C37.5,57.8,37.5,55.6,37.5,53.4z M25,28.6c2.6,0,4.8,2.4,4.8,5.3c0,3-2.1,5.4-4.7,5.4
			c-2.7,0-4.8-2.3-4.9-5.3C20.2,31.2,22.4,28.7,25,28.6z M33.5,60.6c-2.8-0.1-5.6,0-8.5,0c-2.8,0-5.6,0-8.4,0c-0.8,0-1-0.2-0.9-1.1
			c0.2-3-0.3-6.1,0.4-9c1.2-5,5.5-8.2,10.2-7.6c4.5,0.6,8,5,8,10.1c0,2.2,0,4.4,0,6.5C34.4,60.3,34.3,60.6,33.5,60.6z M78.9,66.3
			c0-0.7-0.4-1.3-0.9-1.3c-1,0-0.9-0.7-0.9-1.5c-0.2-6.4-5.6-10.9-11.2-9.6c-3.5,0.8-7.3,4.3-7.3,9.9c0,0.4,0.2,1-0.5,1.1
			c-1,0.1-1.4,0.9-1.4,1.9c0,1.8,0,3.6,0,5.4h0.1c0,2-0.2,4.1,0,6c0.6,5.4,5.1,9.8,9.9,10.1c6.6,0.5,11-4.3,11.9-9.1
			C79.4,75,78.9,70.6,78.9,66.3z M67.8,57.1c3.6,0,6.2,2.9,6.2,6.8c0,0.8-0.2,0.9-0.9,0.9c-1.8,0-3.5,0-5.3,0c-1.8,0-3.5,0-5.3,0
			c-0.6,0-0.8-0.1-0.8-0.9C61.6,60.1,64.2,57.2,67.8,57.1z M75.9,76.4c0.1,5.1-4.3,9.2-9.2,8.5c-4.3-0.7-7.2-4.5-7-9.2
			c0.1-2.2,0-4.4,0-6.6c0-0.7,0.2-0.9,0.8-0.9c2.5,0,4.9,0,7.4,0c2.4,0,4.8,0,7.2,0c0.7,0,0.8,0.2,0.8,0.9
			C75.9,71.6,75.8,74,75.9,76.4z M37.5,53.4c0-3.4-0.9-6.4-2.9-9c-1.2-1.6-2.7-2.8-4.3-3.8c3.8-4.1,3.2-9.8,0.2-13
			c-3.1-3.3-8-3.3-11,0.1c-3.2,3.6-3.1,8.8,0.3,12.8c-0.2,0.1-0.3,0.2-0.4,0.3c-3.7,2.3-6,5.7-6.6,10.4c-0.4,2.9-0.1,5.8-0.1,8.7
			c0,2.6,1.2,4,3.5,4c5.9,0,11.8,0,17.7,0c2.3,0,3.6-1.3,3.6-3.9C37.5,57.8,37.5,55.6,37.5,53.4z M25,28.6c2.6,0,4.8,2.4,4.8,5.3
			c0,3-2.1,5.4-4.7,5.4c-2.7,0-4.8-2.3-4.9-5.3C20.2,31.2,22.4,28.7,25,28.6z M33.5,60.6c-2.8-0.1-5.6,0-8.5,0c-2.8,0-5.6,0-8.4,0
			c-0.8,0-1-0.2-0.9-1.1c0.2-3-0.3-6.1,0.4-9c1.2-5,5.5-8.2,10.2-7.6c4.5,0.6,8,5,8,10.1c0,2.2,0,4.4,0,6.5
			C34.4,60.3,34.3,60.6,33.5,60.6z M37.5,53.4c0-3.4-0.9-6.4-2.9-9c-1.2-1.6-2.7-2.8-4.3-3.8c3.8-4.1,3.2-9.8,0.2-13
			c-3.1-3.3-8-3.3-11,0.1c-3.2,3.6-3.1,8.8,0.3,12.8c-0.2,0.1-0.3,0.2-0.4,0.3c-3.7,2.3-6,5.7-6.6,10.4c-0.4,2.9-0.1,5.8-0.1,8.7
			c0,2.6,1.2,4,3.5,4c5.9,0,11.8,0,17.7,0c2.3,0,3.6-1.3,3.6-3.9C37.5,57.8,37.5,55.6,37.5,53.4z M25,28.6c2.6,0,4.8,2.4,4.8,5.3
			c0,3-2.1,5.4-4.7,5.4c-2.7,0-4.8-2.3-4.9-5.3C20.2,31.2,22.4,28.7,25,28.6z M33.5,60.6c-2.8-0.1-5.6,0-8.5,0c-2.8,0-5.6,0-8.4,0
			c-0.8,0-1-0.2-0.9-1.1c0.2-3-0.3-6.1,0.4-9c1.2-5,5.5-8.2,10.2-7.6c4.5,0.6,8,5,8,10.1c0,2.2,0,4.4,0,6.5
			C34.4,60.3,34.3,60.6,33.5,60.6z M37.5,53.4c0-3.4-0.9-6.4-2.9-9c-1.2-1.6-2.7-2.8-4.3-3.8c3.8-4.1,3.2-9.8,0.2-13
			c-3.1-3.3-8-3.3-11,0.1c-3.2,3.6-3.1,8.8,0.3,12.8c-0.2,0.1-0.3,0.2-0.4,0.3c-3.7,2.3-6,5.7-6.6,10.4c-0.4,2.9-0.1,5.8-0.1,8.7
			c0,2.6,1.2,4,3.5,4c5.9,0,11.8,0,17.7,0c2.3,0,3.6-1.3,3.6-3.9C37.5,57.8,37.5,55.6,37.5,53.4z M25,28.6c2.6,0,4.8,2.4,4.8,5.3
			c0,3-2.1,5.4-4.7,5.4c-2.7,0-4.8-2.3-4.9-5.3C20.2,31.2,22.4,28.7,25,28.6z M33.5,60.6c-2.8-0.1-5.6,0-8.5,0c-2.8,0-5.6,0-8.4,0
			c-0.8,0-1-0.2-0.9-1.1c0.2-3-0.3-6.1,0.4-9c1.2-5,5.5-8.2,10.2-7.6c4.5,0.6,8,5,8,10.1c0,2.2,0,4.4,0,6.5
			C34.4,60.3,34.3,60.6,33.5,60.6z M37.5,53.4c0-3.4-0.9-6.4-2.9-9c-1.2-1.6-2.7-2.8-4.3-3.8c3.8-4.1,3.2-9.8,0.2-13
			c-3.1-3.3-8-3.3-11,0.1c-3.2,3.6-3.1,8.8,0.3,12.8c-0.2,0.1-0.3,0.2-0.4,0.3c-3.7,2.3-6,5.7-6.6,10.4c-0.4,2.9-0.1,5.8-0.1,8.7
			c0,2.6,1.2,4,3.5,4c5.9,0,11.8,0,17.7,0c2.3,0,3.6-1.3,3.6-3.9C37.5,57.8,37.5,55.6,37.5,53.4z M25,28.6c2.6,0,4.8,2.4,4.8,5.3
			c0,3-2.1,5.4-4.7,5.4c-2.7,0-4.8-2.3-4.9-5.3C20.2,31.2,22.4,28.7,25,28.6z M33.5,60.6c-2.8-0.1-5.6,0-8.5,0c-2.8,0-5.6,0-8.4,0
			c-0.8,0-1-0.2-0.9-1.1c0.2-3-0.3-6.1,0.4-9c1.2-5,5.5-8.2,10.2-7.6c4.5,0.6,8,5,8,10.1c0,2.2,0,4.4,0,6.5
			C34.4,60.3,34.3,60.6,33.5,60.6z M37.5,53.4c0-3.4-0.9-6.4-2.9-9c-1.2-1.6-2.7-2.8-4.3-3.8c3.8-4.1,3.2-9.8,0.2-13
			c-3.1-3.3-8-3.3-11,0.1c-3.2,3.6-3.1,8.8,0.3,12.8c-0.2,0.1-0.3,0.2-0.4,0.3c-3.7,2.3-6,5.7-6.6,10.4c-0.4,2.9-0.1,5.8-0.1,8.7
			c0,2.6,1.2,4,3.5,4c5.9,0,11.8,0,17.7,0c2.3,0,3.6-1.3,3.6-3.9C37.5,57.8,37.5,55.6,37.5,53.4z M25,28.6c2.6,0,4.8,2.4,4.8,5.3
			c0,3-2.1,5.4-4.7,5.4c-2.7,0-4.8-2.3-4.9-5.3C20.2,31.2,22.4,28.7,25,28.6z M33.5,60.6c-2.8-0.1-5.6,0-8.5,0c-2.8,0-5.6,0-8.4,0
			c-0.8,0-1-0.2-0.9-1.1c0.2-3-0.3-6.1,0.4-9c1.2-5,5.5-8.2,10.2-7.6c4.5,0.6,8,5,8,10.1c0,2.2,0,4.4,0,6.5
			C34.4,60.3,34.3,60.6,33.5,60.6z"/>
		<path class="st2" d="M37.5,53.4c0-3.4-0.9-6.4-2.9-9c-1.2-1.6-2.7-2.8-4.3-3.8c3.8-4.1,3.2-9.8,0.2-13c-3.1-3.3-8-3.3-11,0.1
			c-3.2,3.6-3.1,8.8,0.3,12.8c-0.2,0.1-0.3,0.2-0.4,0.3c-3.7,2.3-6,5.7-6.6,10.4c-0.4,2.9-0.1,5.8-0.1,8.7c0,2.6,1.2,4,3.5,4
			c5.9,0,11.8,0,17.7,0c2.3,0,3.6-1.3,3.6-3.9C37.5,57.8,37.5,55.6,37.5,53.4z M25,28.6c2.6,0,4.8,2.4,4.8,5.3c0,3-2.1,5.4-4.7,5.4
			c-2.7,0-4.8-2.3-4.9-5.3C20.2,31.2,22.4,28.7,25,28.6z M33.5,60.6c-2.8-0.1-5.6,0-8.5,0c-2.8,0-5.6,0-8.4,0c-0.8,0-1-0.2-0.9-1.1
			c0.2-3-0.3-6.1,0.4-9c1.2-5,5.5-8.2,10.2-7.6c4.5,0.6,8,5,8,10.1c0,2.2,0,4.4,0,6.5C34.4,60.3,34.3,60.6,33.5,60.6z"/>
		<path class="st2" d="M42.9,10.2c0,0.9,0,1.8,0,2.6c-0.1,1-0.6,1.6-1.5,1.6c-0.9,0-1.5-0.6-1.6-1.6c-0.1-1.8-0.1-3.5,0-5.3
			c0.1-1,0.6-1.6,1.6-1.5c0.9,0.1,1.4,0.7,1.4,1.6C43,8.5,42.9,9.4,42.9,10.2z"/>
		<path class="st2" d="M49.3,12.7c-0.1,1.1-0.8,1.9-1.6,1.8c-0.9-0.1-1.5-0.7-1.5-1.7c-0.1-1.7-0.1-3.4,0-5.1c0-1,0.5-1.7,1.5-1.7
			c0.9,0,1.5,0.6,1.6,1.7c0,0.1,0,0.2,0,0.2v2.3c0,0,0,0,0,0C49.3,11.1,49.3,11.9,49.3,12.7z"/>
		<path class="st2" d="M55.6,13c0,0.9-0.7,1.5-1.5,1.5c-0.9,0-1.5-0.6-1.5-1.7c0-0.8,0-1.7,0-2.5s0-1.7,0-2.5c0-1,0.5-1.6,1.4-1.7
			c1-0.1,1.6,0.5,1.6,1.5C55.7,9.4,55.7,11.2,55.6,13z"/>
		<path class="st2" d="M61.9,10.2c0,0.8,0,1.7,0,2.5c0,1-0.7,1.9-1.5,1.8c-0.9-0.1-1.5-0.6-1.5-1.7c0-1.7,0-3.4,0-5.1
			c0-1,0.5-1.6,1.5-1.7c0.9,0,1.5,0.6,1.5,1.6C62,8.5,61.9,9.4,61.9,10.2z"/>
		<path class="st2" d="M68.3,10.3c0,0.9,0,1.8,0,2.6c0,1-0.6,1.6-1.5,1.6c-0.8,0-1.5-0.6-1.5-1.5c-0.1-1.8-0.1-3.6,0-5.4
			c0-0.9,0.6-1.5,1.5-1.5c0.9,0,1.4,0.5,1.5,1.5C68.3,8.5,68.3,9.4,68.3,10.3z"/>
		<path class="st2" d="M74.6,12.8c-0.1,1-0.6,1.6-1.5,1.7c-0.8,0.1-1.6-0.7-1.6-1.7c-0.1-1.7-0.1-3.4,0-5.1c0-1,0.6-1.6,1.5-1.6
			c1,0,1.5,0.6,1.5,1.6c0.1,0.8,0,1.7,0,2.5h0C74.7,11.1,74.7,11.9,74.6,12.8z"/>
		<path class="st2" d="M81,10.4c0,0.7,0,1.4,0,2.2c0,1.2-0.6,1.9-1.5,2c-0.9,0-1.6-0.7-1.6-1.9c0-1.6,0-3.2,0-4.8
			c0-1.1,0.6-1.8,1.5-1.8c0.9,0,1.5,0.7,1.5,1.8C81,8.7,81,9.5,81,10.4z"/>
		<path class="st2" d="M87.3,12.8c0,1-0.8,1.8-1.6,1.7c-0.9-0.1-1.4-0.7-1.5-1.7c0-0.9,0-1.8,0-2.7c0-0.8,0-1.6,0-2.4
			c0-1.1,0.6-1.6,1.5-1.6c1,0,1.5,0.6,1.5,1.6C87.4,9.4,87.4,11.1,87.3,12.8z"/>
		<path class="st2" d="M78.9,66.3c0-0.7-0.4-1.3-0.9-1.3c-1,0-0.9-0.7-0.9-1.5c-0.2-6.4-5.6-10.9-11.2-9.6c-3.5,0.8-7.3,4.3-7.3,9.9
			c0,0.4,0.2,1-0.5,1.1c-1,0.1-1.4,0.9-1.4,1.9c0,1.8,0,3.6,0,5.4h0.1c0,2-0.2,4.1,0,6c0.6,5.4,5.1,9.8,9.9,10.1
			c6.6,0.5,11-4.3,11.9-9.1C79.4,75,78.9,70.6,78.9,66.3z M67.8,57.1c3.6,0,6.2,2.9,6.2,6.8c0,0.8-0.2,0.9-0.9,0.9
			c-1.8,0-3.5,0-5.3,0c-1.8,0-3.5,0-5.3,0c-0.6,0-0.8-0.1-0.8-0.9C61.6,60.1,64.2,57.2,67.8,57.1z M75.9,76.4
			c0.1,5.1-4.3,9.2-9.2,8.5c-4.3-0.7-7.2-4.5-7-9.2c0.1-2.2,0-4.4,0-6.6c0-0.7,0.2-0.9,0.8-0.9c2.5,0,4.9,0,7.4,0c2.4,0,4.8,0,7.2,0
			c0.7,0,0.8,0.2,0.8,0.9C75.9,71.6,75.8,74,75.9,76.4z"/>
		<path class="st2" d="M37.5,53.4c0-3.4-0.9-6.4-2.9-9c-1.2-1.6-2.7-2.8-4.3-3.8c3.8-4.1,3.2-9.8,0.2-13c-3.1-3.3-8-3.3-11,0.1
			c-3.2,3.6-3.1,8.8,0.3,12.8c-0.2,0.1-0.3,0.2-0.4,0.3c-3.7,2.3-6,5.7-6.6,10.4c-0.4,2.9-0.1,5.8-0.1,8.7c0,2.6,1.2,4,3.5,4
			c5.9,0,11.8,0,17.7,0c2.3,0,3.6-1.3,3.6-3.9C37.5,57.8,37.5,55.6,37.5,53.4z M25,28.6c2.6,0,4.8,2.4,4.8,5.3c0,3-2.1,5.4-4.7,5.4
			c-2.7,0-4.8-2.3-4.9-5.3C20.2,31.2,22.4,28.7,25,28.6z M33.5,60.6c-2.8-0.1-5.6,0-8.5,0c-2.8,0-5.6,0-8.4,0c-0.8,0-1-0.2-0.9-1.1
			c0.2-3-0.3-6.1,0.4-9c1.2-5,5.5-8.2,10.2-7.6c4.5,0.6,8,5,8,10.1c0,2.2,0,4.4,0,6.5C34.4,60.3,34.3,60.6,33.5,60.6z"/>
		<path class="st2" d="M49.3,12.7c-0.1,1.1-0.8,1.9-1.6,1.8c-0.9-0.1-1.5-0.7-1.5-1.7c-0.1-1.7-0.1-3.4,0-5.1c0-1,0.5-1.7,1.5-1.7
			c0.9,0,1.5,0.6,1.6,1.7c0,0.1,0,0.2,0,0.2v2.3c0,0,0,0,0,0C49.3,11.1,49.3,11.9,49.3,12.7z"/>
		<path class="st2" d="M81,10.4c0,0.7,0,1.4,0,2.2c0,1.2-0.6,1.9-1.5,2c-0.9,0-1.6-0.7-1.6-1.9c0-1.6,0-3.2,0-4.8
			c0-1.1,0.6-1.8,1.5-1.8c0.9,0,1.5,0.7,1.5,1.8C81,8.7,81,9.5,81,10.4z"/>
		<path class="st2" d="M74.6,12.8c-0.1,1-0.6,1.6-1.5,1.7c-0.8,0.1-1.6-0.7-1.6-1.7c-0.1-1.7-0.1-3.4,0-5.1c0-1,0.6-1.6,1.5-1.6
			c1,0,1.5,0.6,1.5,1.6c0.1,0.8,0,1.7,0,2.5h0C74.7,11.1,74.7,11.9,74.6,12.8z"/>
		<path class="st2" d="M61.9,10.2c0,0.8,0,1.7,0,2.5c0,1-0.7,1.9-1.5,1.8c-0.9-0.1-1.5-0.6-1.5-1.7c0-1.7,0-3.4,0-5.1
			c0-1,0.5-1.6,1.5-1.7c0.9,0,1.5,0.6,1.5,1.6C62,8.5,61.9,9.4,61.9,10.2z"/>
		<path class="st2" d="M42.9,10.2c0,0.9,0,1.8,0,2.6c-0.1,1-0.6,1.6-1.5,1.6c-0.9,0-1.5-0.6-1.6-1.6c-0.1-1.8-0.1-3.5,0-5.3
			c0.1-1,0.6-1.6,1.6-1.5c0.9,0.1,1.4,0.7,1.4,1.6C43,8.5,42.9,9.4,42.9,10.2z"/>
		<path class="st2" d="M68.3,10.3c0,0.9,0,1.8,0,2.6c0,1-0.6,1.6-1.5,1.6c-0.8,0-1.5-0.6-1.5-1.5c-0.1-1.8-0.1-3.6,0-5.4
			c0-0.9,0.6-1.5,1.5-1.5c0.9,0,1.4,0.5,1.5,1.5C68.3,8.5,68.3,9.4,68.3,10.3z"/>
		<path class="st2" d="M87.3,12.8c0,1-0.8,1.8-1.6,1.7c-0.9-0.1-1.4-0.7-1.5-1.7c0-0.9,0-1.8,0-2.7c0-0.8,0-1.6,0-2.4
			c0-1.1,0.6-1.6,1.5-1.6c1,0,1.5,0.6,1.5,1.6C87.4,9.4,87.4,11.1,87.3,12.8z"/>
		<path class="st2" d="M55.6,13c0,0.9-0.7,1.5-1.5,1.5c-0.9,0-1.5-0.6-1.5-1.7c0-0.8,0-1.7,0-2.5s0-1.7,0-2.5c0-1,0.5-1.6,1.4-1.7
			c1-0.1,1.6,0.5,1.6,1.5C55.7,9.4,55.7,11.2,55.6,13z"/>
		<path class="st2" d="M78.9,66.3c0-0.7-0.4-1.3-0.9-1.3c-1,0-0.9-0.7-0.9-1.5c-0.2-6.4-5.6-10.9-11.2-9.6c-3.5,0.8-7.3,4.3-7.3,9.9
			c0,0.4,0.2,1-0.5,1.1c-1,0.1-1.4,0.9-1.4,1.9c0,1.8,0,3.6,0,5.4h0.1c0,2-0.2,4.1,0,6c0.6,5.4,5.1,9.8,9.9,10.1
			c6.6,0.5,11-4.3,11.9-9.1C79.4,75,78.9,70.6,78.9,66.3z M67.8,57.1c3.6,0,6.2,2.9,6.2,6.8c0,0.8-0.2,0.9-0.9,0.9
			c-1.8,0-3.5,0-5.3,0c-1.8,0-3.5,0-5.3,0c-0.6,0-0.8-0.1-0.8-0.9C61.6,60.1,64.2,57.2,67.8,57.1z M75.9,76.4
			c0.1,5.1-4.3,9.2-9.2,8.5c-4.3-0.7-7.2-4.5-7-9.2c0.1-2.2,0-4.4,0-6.6c0-0.7,0.2-0.9,0.8-0.9c2.5,0,4.9,0,7.4,0c2.4,0,4.8,0,7.2,0
			c0.7,0,0.8,0.2,0.8,0.9C75.9,71.6,75.8,74,75.9,76.4z"/>
	</g>
</g>
<g id="Layer_2" class="st0">
	<g class="st1">
		<path class="st2" d="M87.2,10.5c-4.6-3.4-9.9-6-15.9-7.9c-6.2-1.9-12.7-2.9-19.5-2.9s-13.3,1-19.5,2.9c-6,1.9-11.3,4.5-15.9,7.9
			c-4.6,3.4-8.2,7.3-10.7,11.7c-2.6,4.5-3.9,9.3-3.9,14.3c0,29,30.3,52.6,43.3,61.3c1.8,1.2,4.2,1.9,6.7,1.9c2.5,0,4.9-0.7,6.7-1.9
			C64.4,94,75.5,85.8,84.9,75c11.3-12.9,17-25.8,17-38.5c0-5-1.3-9.8-3.9-14.3C95.4,17.9,91.8,13.9,87.2,10.5z M81.4,73.4
			c-9.1,10.5-20,18.4-25.6,22.2c-1.1,0.7-2.5,1.1-3.9,1.1c-1.5,0-2.8-0.4-3.9-1.1c-5.7-3.8-16.5-11.8-25.6-22.2
			C11.5,61,6,48.6,6,36.5c0-4.6,1.2-9,3.6-13.1c2.3-4,5.6-7.6,9.8-10.7c4.2-3.1,9.1-5.5,14.6-7.2c5.7-1.8,11.7-2.6,17.8-2.6
			S64,3.7,69.7,5.5c5.5,1.7,10.4,4.1,14.6,7.2s7.5,6.7,9.8,10.7c2.4,4.2,3.6,8.6,3.6,13.1C97.7,48.6,92.2,61,81.4,73.4z"/>
		<path class="st2" d="M51.8,13.1c-8.5,0-16.5,2.4-22.5,6.8c-6,4.4-9.3,10.3-9.3,16.5s3.3,12.1,9.3,16.5c6,4.4,14,6.8,22.5,6.8
			s16.5-2.4,22.5-6.8c6-4.4,9.3-10.3,9.3-16.5s-3.3-12.1-9.3-16.5C68.3,15.5,60.3,13.1,51.8,13.1z M71.4,50.8
			c-5.2,3.8-12.1,5.9-19.5,5.9s-14.3-2.1-19.5-5.9c-5.2-3.8-8.1-8.9-8.1-14.4s2.9-10.5,8.1-14.4c5.2-3.8,12.1-5.9,19.5-5.9
			s14.3,2.1,19.5,5.9c5.2,3.8,8.1,8.9,8.1,14.4S76.6,46.9,71.4,50.8z"/>
		<path class="st2" d="M64.6,26.1c-1-0.5-2.3-0.3-3,0.4L46.6,43l-4.9-3.6c-0.8-0.6-2.2-0.6-3,0c-0.8,0.6-0.8,1.6,0,2.2l6.7,4.9
			c0.4,0.3,1,0.5,1.5,0.5c0.1,0,0.1,0,0.2,0c0.6,0,1.2-0.3,1.6-0.7l16.5-18.1C65.9,27.5,65.6,26.6,64.6,26.1z"/>
	</g>
</g>
<g id="Layer_3">
	<path class="st2" d="M43,41.7c-2.8,2.8-5.6,5.6-8.4,8.3c-0.6,0.6-1.2,0.5-1.8-0.1c-1.4-1.4-2.7-2.7-4.1-4.1
		c-0.4-0.4-0.6-0.9-0.3-1.4c0.2-0.5,0.6-0.7,1.2-0.7c0.4,0,0.8,0.3,1.1,0.6c0.9,0.9,1.7,1.7,2.6,2.6c0.4,0.5,0.7,0.4,1.1,0
		c2.2-2.3,4.5-4.5,6.8-6.8c0.7-0.7,1.4-0.8,2-0.2C43.6,40.5,43.6,41.2,43,41.7z"/>
	<path class="st2" d="M47,65.5c-2.1,0-4.2,0-6.3,0c-0.6,0-0.8-0.2-0.7-0.8c0-1.1,0.1-2.2,0-3.3c0-0.7,0.2-1,0.9-1.2
		c7.2-2.3,11.9-9.5,11-17c-1.1-9.3-9.7-15.6-18.9-14c-6.8,1.2-12.1,6.7-13.1,13.5c-1,6.7,2.5,13.4,8.6,16.6c1.1,0.6,2.7,0.5,3.2,1.6
		c0.4,1.1,0.1,2.5,0.1,3.8c0,0.7-0.1,0.9-0.8,0.9c-1.8-0.1-3.6,0-5.4,0c-2.2,0-3.8,1-4.9,2.9c-0.4,0.8-0.7,1.6-1,2.4
		c-0.1,0.4-0.2,0.7-0.6,0.9c-1,0.5-1.9,0.9-3,1c-2,0.1-2,0.1-2-1.9v-0.4c0-1.4-0.3-1.7-1.7-1.7c-3.4,0-6.8,0-10.2,0
		c-1.3,0-1.7,0.3-1.7,1.7c0,4.5,0,9,0,13.5c0,4.7,0,9.4,0,14.1c0,1.1,0.4,1.5,1.5,1.5c3.6,0,7.1,0,10.7,0c0.9,0,1.4-0.4,1.4-1.4
		c0-0.5,0-1,0-1.6c0-0.5,0.2-0.6,0.7-0.6c3.2-0.1,6.1,0.6,8.8,2.2c1.1,0.6,2.2,1.2,3.5,1.6c0.9,0.3,1.8,0.2,2.6,0.6h14.2
		c0,0,0.1-0.1,0.1-0.1c2.9-1.2,3.9-3.3,2.6-6.1c-0.2-0.4,0-0.5,0.3-0.8c2-1.7,2.3-4,0.7-6.1c-0.3-0.4-0.3-0.6,0-1
		c1.2-1.6,1.3-3.6,0.1-5.2c-0.4-0.5-0.3-0.7,0-1.2c1.5-2.1,0.8-4.8-1.4-6c-0.2-0.1-0.6-0.1-0.7-0.4c2.1-1.4,3.2-3.5,3.3-6.2
		C48.7,65.9,48.3,65.5,47,65.5z M11.4,84.1c0,4,0,8.1,0,12.1c0,0.7-0.2,0.9-0.9,0.9c-2.3,0-4.7,0-7,0c-0.7,0-0.8-0.2-0.8-0.8
		c0-8.1,0-16.1,0-24.2c0-0.6,0.1-0.8,0.8-0.8c2.3,0,4.7,0,7,0c0.7,0,0.9,0.2,0.9,0.9C11.4,76.1,11.4,80.1,11.4,84.1z M22.1,45
		c0-7.5,6.1-13.6,13.8-13.5c7.6,0,13.6,6.1,13.6,13.6c0,7.5-6.1,13.5-13.7,13.5C28.3,58.6,22.1,52.5,22.1,45z M34.2,67.2
		c0-1.8,0-3.6,0-5.4c0-0.7,0.2-0.9,0.9-0.8c0.4,0.1,0.8,0,1.2,0c1.3,0,1.3,0,1.3,1.3c0,3.4,0,6.8,0,10.1c0,0.6-0.1,1-0.8,0.9
		c-0.8-0.1-1.9,0.2-2.4-0.2c-0.5-0.4-0.1-1.5-0.2-2.3C34.1,69.6,34.2,68.4,34.2,67.2z M45.8,77.5c0,1.1-0.7,1.7-2.1,1.7
		c-1.3,0-2.6,0-3.9,0c-0.9,0-1.5,0.5-1.4,1.2c0.1,0.8,0.6,1.2,1.4,1.2c1.5,0,3,0,4.4,0.1c0.9,0,1.4,0.6,1.6,1.5
		c0.2,0.9-0.1,1.6-0.9,2.1c-0.4,0.2-0.8,0.2-1.2,0.2c-1.2,0-2.4,0-3.6,0c-1,0-1.6,0.5-1.6,1.2c0,0.8,0.6,1.2,1.6,1.2
		c1.3,0,2.6,0,3.8,0c1.2,0,2,0.8,2,1.9c0,1.1-0.8,1.8-2,1.8c-1.9,0-3.9,0-5.8,0c-1,0-1.6,0.4-1.6,1.2c0,0.8,0.5,1.3,1.6,1.3
		c1.5,0,3,0,4.4,0c1.2,0,1.9,0.7,1.9,1.8c0,1.1-0.7,1.9-1.9,1.9c-4.1,0-8.1,0-12.2-0.1c-1.9,0-3.7-0.5-5.3-1.5
		c-3.2-1.9-6.6-2.8-10.3-2.7c-0.7,0-0.8-0.2-0.8-0.9c0-5.5,0-11,0-16.5c0-0.7,0.2-0.9,0.9-0.8c1.9,0.1,3.6-0.4,5.3-1.3
		c0.9-0.5,1.5-1.1,1.8-2.1c0.3-0.8,0.6-1.6,1-2.3c0.5-1,1.4-1.6,2.5-1.6c1.9,0,3.9,0,5.8-0.1c0.5,0,0.7,0.2,0.6,0.7c0,1,0,2,0,3.1
		c-0.7-0.5-1.4-0.8-2-0.1c-0.6,0.6-0.4,1.3-0.1,2c0.7,1.5,1.9,2.2,3.5,2.2c3.5,0,7.1,0,10.6,0C45.1,75.8,45.8,76.4,45.8,77.5z
		 M46,68.6c-0.4,1.8-1.5,2.9-3.4,3C40,71.8,40,71.8,40,69.3c0-1.4,0-1.4,1.4-1.4h1.7c0.8,0,1.6,0,2.4,0C45.9,67.9,46.1,68,46,68.6z"
		/>
	<path class="st2" d="M69.9,19.7c0.4,0.4,0.6,0.8,0.3,1.4c-0.2,0.5-0.6,0.7-1.1,0.8c-0.5,0-0.8-0.3-1.1-0.6c-0.9-1-1.9-1.9-2.8-2.8
		c-0.3-0.3-0.5-0.4-0.8,0c-1,1-1.9,1.9-2.9,2.9c-0.7,0.7-1.5,0.8-2,0.1c-0.6-0.7-0.4-1.3,0.2-1.9c0.9-0.9,1.8-1.9,2.8-2.7
		c0.4-0.4,0.5-0.6,0-1.1c-1-0.9-1.9-1.8-2.8-2.7c-0.7-0.7-0.8-1.5-0.2-2c0.7-0.6,1.3-0.4,1.9,0.2c1,1,2,1.9,2.9,2.9
		c0.3,0.3,0.5,0.4,0.8,0c0.9-1,1.9-2,2.9-2.9c0.7-0.6,1.4-0.7,1.9-0.2c0.6,0.5,0.5,1.2-0.1,1.9c-0.9,1-1.9,1.9-2.9,2.8
		c-0.4,0.4-0.4,0.6,0,1C68,17.7,68.9,18.7,69.9,19.7z"/>
	<path class="st2" d="M98.9,40c-3.6,0-7.3,0-10.9,0c-0.8,0-1.3,0.5-1.3,1.4c0,0.3,0,0.7,0,1c0,1.7,0,1.7-1.8,1.7
		c-2.3-0.1-3.5-0.8-4.3-3c-0.1-0.3-0.2-0.5-0.3-0.8c-1.1-2.2-2.8-3.4-5.4-3.4c-1.7,0-3.5-0.1-5.2,0c-0.8,0-0.9-0.2-0.9-0.9
		c0.1-1,0.1-2,0-2.9c-0.1-0.8,0.2-1.2,1-1.5c7.4-2.4,12.1-10,10.9-17.5C79.3,4.9,70.9-0.8,62.2,0.4C53.4,1.7,47,10.7,48.8,19.2
		c1.3,6.2,5,10.3,11.1,12.4c0.5,0.2,0.7,0.3,0.7,0.9c0,1.2-0.1,2.4,0,3.6c0,0.6-0.2,0.7-0.8,0.7c-2.1,0-4.3,0-6.4,0
		c-1.1,0-1.6,0.4-1.5,1.6c0.1,2.6,0.9,4.9,3.3,6.4c-0.1,0.1-0.2,0.1-0.3,0.2c-2.8,1.1-3.6,4.5-1.7,6.5c0.3,0.3,0.2,0.5,0,0.7
		c-1.3,2-1.3,3.6,0,5.5c0.2,0.3,0.2,0.5,0,0.8c-1.6,2.1-1.3,4.5,0.7,6.1c0.3,0.3,0.4,0.4,0.2,0.8c-1.4,3.1,0.6,6.2,4,6.2
		c3.6,0,7.1,0,10.7,0c3.1,0,5.9-0.7,8.6-2.3c2.1-1.3,4.5-1.9,7-2c2.2-0.1,2.2-0.1,2.3,2.1c0,1,0.4,1.4,1.5,1.4c3.5,0,7.1,0,10.6,0
		c1,0,1.5-0.5,1.5-1.5c0-9.3,0-18.5,0-27.8C100.3,40.5,99.8,40,98.9,40z M51.1,16.1c0-7.4,6.2-13.4,13.7-13.4
		c7.5,0,13.7,6.1,13.7,13.6c0,7.4-6.2,13.6-13.7,13.6C57.1,29.9,51,23.8,51.1,16.1z M63.1,38.5c0-1.8,0-3.6,0-5.5
		c0-0.6,0.2-0.8,0.8-0.7c0.6,0.1,1.3,0.1,2,0c0.5,0,0.6,0.2,0.6,0.7c0,3.7,0,7.3,0,11c0,0.6-0.2,0.7-0.7,0.7
		c-0.8-0.1-1.9,0.3-2.5-0.2c-0.5-0.4-0.1-1.6-0.2-2.4C63,40.9,63.1,39.7,63.1,38.5z M54.5,39.7c-0.1-0.5,0.2-0.4,0.5-0.4
		c0.8,0,1.6,0,2.5,0h0.2c3.2,0,3.2,0,2.9,3.2c0,0.4-0.2,0.5-0.5,0.5c-0.8,0-1.5,0-2.3,0C56.1,42.8,54.7,41.4,54.5,39.7z M86.7,63.8
		c0,0.7-0.2,0.9-0.9,0.9c-3.7-0.1-7.1,0.8-10.2,2.7c-1.8,1.1-3.7,1.5-5.7,1.6c-3.9,0.1-7.8,0.1-11.7,0.1c-1.3,0-2.1-0.7-2.1-1.8
		c0-1.1,0.7-1.8,2.1-1.8c1.5,0,3,0,4.5,0c0.7,0,1.2-0.3,1.3-1c0.1-0.6-0.1-1-0.6-1.3c-0.3-0.2-0.6-0.1-0.9-0.1c-1.9,0-3.8,0-5.7,0
		c-1.3,0-2.2-0.7-2.2-1.9c0-1.1,0.8-1.8,2.2-1.8c1.3,0,2.6,0,3.8,0c0.9,0,1.5-0.5,1.5-1.2c0-0.7-0.6-1.3-1.4-1.3c-1.3,0-2.6,0-3.8,0
		c-1.3,0-2.1-0.7-2.2-1.9c0-1.2,0.8-2,2.1-2c1.2,0,2.5,0,3.7,0c1,0,1.6-0.5,1.6-1.2c0-0.8-0.6-1.2-1.6-1.2c-1.4,0-2.8,0-4.1,0
		c-0.9,0-1.5-0.4-1.7-1.3c-0.2-0.8,0.1-1.5,0.9-1.8c0.4-0.2,0.8-0.1,1.2-0.1c3.5,0,7,0,10.5,0c1.7,0,3.1-0.9,3.6-2.4
		c0.2-0.7,0.4-1.3-0.2-1.9c-0.5-0.5-0.9-0.4-2,0.1c0-1.1,0-2.1,0-3.1c0-0.5,0.1-0.6,0.6-0.6c1.9,0,3.8,0,5.7,0.1
		c1.3,0,2.3,0.7,2.8,1.9c0.1,0.3,0.3,0.5,0.3,0.8c0.7,3.4,3.5,4.1,6.4,4.6c0.6,0.1,1.5-0.2,1.8,0.1c0.5,0.4,0.2,1.3,0.2,2
		C86.7,53.7,86.7,58.8,86.7,63.8z M97.8,67.5c0,0.6-0.2,0.8-0.8,0.8c-2.4,0-4.7,0-7.1,0c-0.7,0-0.8-0.2-0.8-0.8c0-4,0-8,0-12
		c0-4.1,0-8.1,0-12.2c0-0.6,0.2-0.8,0.8-0.8c2.4,0,4.7,0,7.1,0c0.6,0,0.7,0.2,0.7,0.8C97.8,51.3,97.8,59.4,97.8,67.5z"/>
	<path class="st2" d="M43,41.7c-2.8,2.8-5.6,5.6-8.4,8.3c-0.6,0.6-1.2,0.5-1.8-0.1c-1.4-1.4-2.7-2.7-4.1-4.1
		c-0.4-0.4-0.6-0.9-0.3-1.4c0.2-0.5,0.6-0.7,1.2-0.7c0.4,0,0.8,0.3,1.1,0.6c0.9,0.9,1.7,1.7,2.6,2.6c0.4,0.5,0.7,0.4,1.1,0
		c2.2-2.3,4.5-4.5,6.8-6.8c0.7-0.7,1.4-0.8,2-0.2C43.6,40.5,43.6,41.2,43,41.7z"/>
	<path class="st2" d="M69.9,19.7c0.4,0.4,0.6,0.8,0.3,1.4c-0.2,0.5-0.6,0.7-1.1,0.8c-0.5,0-0.8-0.3-1.1-0.6c-0.9-1-1.9-1.9-2.8-2.8
		c-0.3-0.3-0.5-0.4-0.8,0c-1,1-1.9,1.9-2.9,2.9c-0.7,0.7-1.5,0.8-2,0.1c-0.6-0.7-0.4-1.3,0.2-1.9c0.9-0.9,1.8-1.9,2.8-2.7
		c0.4-0.4,0.5-0.6,0-1.1c-1-0.9-1.9-1.8-2.8-2.7c-0.7-0.7-0.8-1.5-0.2-2c0.7-0.6,1.3-0.4,1.9,0.2c1,1,2,1.9,2.9,2.9
		c0.3,0.3,0.5,0.4,0.8,0c0.9-1,1.9-2,2.9-2.9c0.7-0.6,1.4-0.7,1.9-0.2c0.6,0.5,0.5,1.2-0.1,1.9c-0.9,1-1.9,1.9-2.9,2.8
		c-0.4,0.4-0.4,0.6,0,1C68,17.7,68.9,18.7,69.9,19.7z"/>
	<path class="st2" d="M43,41.7c-2.8,2.8-5.6,5.6-8.4,8.3c-0.6,0.6-1.2,0.5-1.8-0.1c-1.4-1.4-2.7-2.7-4.1-4.1
		c-0.4-0.4-0.6-0.9-0.3-1.4c0.2-0.5,0.6-0.7,1.2-0.7c0.4,0,0.8,0.3,1.1,0.6c0.9,0.9,1.7,1.7,2.6,2.6c0.4,0.5,0.7,0.4,1.1,0
		c2.2-2.3,4.5-4.5,6.8-6.8c0.7-0.7,1.4-0.8,2-0.2C43.6,40.5,43.6,41.2,43,41.7z"/>
	<path class="st2" d="M69.9,19.7c0.4,0.4,0.6,0.8,0.3,1.4c-0.2,0.5-0.6,0.7-1.1,0.8c-0.5,0-0.8-0.3-1.1-0.6c-0.9-1-1.9-1.9-2.8-2.8
		c-0.3-0.3-0.5-0.4-0.8,0c-1,1-1.9,1.9-2.9,2.9c-0.7,0.7-1.5,0.8-2,0.1c-0.6-0.7-0.4-1.3,0.2-1.9c0.9-0.9,1.8-1.9,2.8-2.7
		c0.4-0.4,0.5-0.6,0-1.1c-1-0.9-1.9-1.8-2.8-2.7c-0.7-0.7-0.8-1.5-0.2-2c0.7-0.6,1.3-0.4,1.9,0.2c1,1,2,1.9,2.9,2.9
		c0.3,0.3,0.5,0.4,0.8,0c0.9-1,1.9-2,2.9-2.9c0.7-0.6,1.4-0.7,1.9-0.2c0.6,0.5,0.5,1.2-0.1,1.9c-0.9,1-1.9,1.9-2.9,2.8
		c-0.4,0.4-0.4,0.6,0,1C68,17.7,68.9,18.7,69.9,19.7z"/>
</g>
<g id="Layer_4" class="st0">
	<g class="st1">
		<path class="st2" d="M173.7,127.8c1.2-1.8,2.4-3.6,2.4-6.1c-0.1-31.6,0-63.1-0.1-94.6c0-4.4-2.2-6.6-6.7-6.6
			c-15.3-0.2-29,13.2-29.2,28.6c-0.1,13.5,0,26.9,0,40.4c0,1.3,0.2,2.6-0.9,3.8c-6.5,6.4-13,12.8-19.4,19.2
			c-1.1,1.1-1.5,0.9-2.5-0.3c-8.4-10.7-19.8-11.2-29.4-1.6c-11.7,11.7-23.5,23.4-35.1,35.2c-2,2.1-3,1.8-4.9-0.1
			c-12-12.2-24.1-24.3-36.2-36.3c-8.5-8.4-21-7.4-27.9,2.2c-1.5,2.1-2.1,1.6-3.5,0.2c-5.8-5.9-11.6-11.7-17.5-17.4
			c-1.7-1.6-2.2-3.3-2.2-5.6c0.1-13.4,0.1-26.7,0-40c-0.2-15.4-14-28.7-29.3-28.5c-4.2,0.1-6.5,2.2-6.5,6.4
			c-0.1,7.7-0.1,15.5,0,23.2c0,3.8,2.3,6.3,5.8,6.3c3.7,0.1,6.1-2.4,6.1-6.4c0.1-4.6,0.1-9.2,0-13.8c-0.1-2.4,0.8-2.4,2.5-1.4
			c6.4,3.7,9.5,9.4,9.5,16.6c0.1,14,0.1,27.9,0,41.9c0,3.1,1,5.4,3.2,7.6c14.8,14.6,29.6,29.3,44.3,44c5.8,5.7,11.5,11.5,17.2,17.1
			c2.3,2.2,4.9,2.9,7.8,1.1c2.5-1.7,3-4.2,2.2-6.9c-0.4-1.5-1.7-2.4-2.8-3.5c-8.6-8.6-17.3-17.2-25.9-25.9c-2.8-2.9-2.9-6.5-0.4-8.9
			c2.4-2.4,5.8-2.3,8.6,0.5C15.5,130.6,28,143,40.6,155.5c2.4,2.4,3.7,5.3,3.7,8.7c0.1,15.2,0,30.4,0.1,45.6c0,1.9-0.6,2.2-2.3,2.2
			c-18.5,0-36.9-0.1-55.4,0c-1.9,0-2.3-0.6-2.2-2.3c0.1-4.4-0.1-8.7,0.1-13.1c0.1-3.3-0.9-6-2.7-8.7c-14.6-21.7-29-43.4-43.6-65.1
			c-1.1-1.7-1.8-3.4-1.7-5.5c0.1-6.1,0.1-12.2,0-18.3c0-4.2-2.2-6.6-5.9-6.7c-3.8-0.1-6.1,2.4-6.1,6.8c0,6.9,0.1,13.7-0.1,20.6
			c-0.1,3.1,0.7,5.7,2.5,8.3c13.4,19.9,26.6,40,40.2,59.8c3.8,5.6,6,11.1,5.4,17.9c-0.5,5.9-0.1,5.9-6.1,6.3
			c-3.6,0.2-5.9,2.5-5.9,5.9c0,3.5,2.4,5.9,6.1,6.1c0.9,0,1.8,0,2.6,0H76.7c19,0,37.9,0,56.9,0c4.1,0,6.6-2.3,6.6-5.9
			c0-3.4-2.3-5.8-5.8-6c-6.2-0.5-6.2-0.5-6.2-6.9c0-1.4,0.1-2.8,0-4.1c-0.4-3.5,0.8-6.4,2.8-9.3
			C145.3,170.5,159.5,149.1,173.7,127.8z M118.8,188c-1.8,2.7-2.8,5.4-2.7,8.7c0.2,4.4,0,8.7,0.1,13.1c0,1.7-0.4,2.3-2.2,2.3
			c-18.5-0.1-36.9-0.1-55.4,0c-1.7,0-2.3-0.4-2.3-2.2c0.1-15.2,0-30.4,0.1-45.6c0-3.3,1.4-6.3,3.8-8.7
			c12.5-12.4,24.9-24.8,37.4-37.2c2.8-2.8,6.1-3,8.6-0.7c2.7,2.5,2.7,5.9-0.2,8.9c-8.7,8.9-17.6,17.7-26.4,26.5
			c-1.6,1.6-3.1,3.3-2.8,5.8c0.6,4.6,5.9,6.9,9.7,4.2c1-0.7,1.9-1.7,2.7-2.5c19.9-19.9,39.8-39.9,59.8-59.7c2.3-2.3,3.2-4.7,3.2-7.9
			c-0.2-13.8-0.1-27.7,0-41.5c0-8.4,4.5-14.9,11.9-17.2v3.7c0,26.4,0,52.9,0,79.3c0,2.2-0.5,4-1.7,5.9
			C147.9,144.5,133.4,166.3,118.8,188z"/>
		<path class="st2" d="M78.4-13.8c2.8,2.6,2.5,6.3-1,9.8C66.2,7.2,54.9,18.5,43.6,29.8c-1.4,1.4-2.9,2.8-5.1,2.6
			c-1.9,0.2-3.3-0.7-4.6-2c-3.7-3.7-7.4-7.4-11.1-11.1c-2.9-3-3.1-6.4-0.7-8.9c2.5-2.6,6-2.4,9.2,0.4c2.5,2.2,4.5,6.5,7.3,6.2
			c2.5-0.3,4.7-4.1,7-6.4C53.4,2.9,61.2-4.9,69-12.6C72.3-16,75.7-16.4,78.4-13.8z"/>
		<path class="st2" d="M116.3-32.1c0.1-3.7-1.3-6-4.9-7.4C92.2-47.1,73-54.8,53.8-62.6c-2.3-0.9-4.5-0.9-6.8,0
			C27.7-54.8,8.5-47.1-10.8-39.4c-3.3,1.3-4.8,3.5-4.7,7.1c0.1,13,0.1,25.9,0,38.9c0,6.9,1,13.7,2.8,20.3
			C-4.1,58.8,16.2,80,46.8,91.8c2.2,0.9,4.4,0.6,6.5-0.2c29.7-11.1,49.8-31.4,59.3-62c4.1-13.4,3.7-27,3.6-40.7
			C116.2-18.1,116.1-25.1,116.3-32.1z M103.6,12.3c-3.7,30.3-19.7,51.8-47.2,65.1c-4.3,2.1-8,2-12.2,0C14,62.5-1.9,38.2-3.5,4.7
			c-0.2-4.7,0-9.5,0-14.2c0-5.7,0.1-11.5,0-17.2c-0.1-1.9,0.5-2.8,2.3-3.5C15.3-36.8,31.7-43.3,48.2-50c1.6-0.6,3-0.6,4.6,0
			c16.3,6.6,32.7,13.1,49,19.6c1.3,0.5,2.6,0.9,2.5,3C103.9-14.1,105.2-0.9,103.6,12.3z"/>
		<path class="st2" d="M77.4-4.1C66.2,7.2,54.9,18.5,43.6,29.8c-1.4,1.4-2.9,2.8-5.1,2.6c-1.9,0.2-3.3-0.7-4.6-2
			c-3.7-3.7-7.4-7.4-11.1-11.1c-2.9-3-3.1-6.4-0.7-8.9c2.5-2.6,6-2.4,9.2,0.4c2.5,2.2,4.5,6.5,7.3,6.2c2.5-0.3,4.7-4.1,7-6.4
			C53.4,2.9,61.2-4.9,69-12.6c3.4-3.3,6.8-3.8,9.5-1.2C81.2-11.2,80.9-7.5,77.4-4.1z"/>
		<path class="st2" d="M77.4-4.1C66.2,7.2,54.9,18.5,43.6,29.8c-1.4,1.4-2.9,2.8-5.1,2.6c-1.9,0.2-3.3-0.7-4.6-2
			c-3.7-3.7-7.4-7.4-11.1-11.1c-2.9-3-3.1-6.4-0.7-8.9c2.5-2.6,6-2.4,9.2,0.4c2.5,2.2,4.5,6.5,7.3,6.2c2.5-0.3,4.7-4.1,7-6.4
			C53.4,2.9,61.2-4.9,69-12.6c3.4-3.3,6.8-3.8,9.5-1.2C81.2-11.2,80.9-7.5,77.4-4.1z"/>
	</g>
</g>
</svg>
